<svg width="30" height="30" viewBox="0 0 30 30" fill="none" xmlns="http://www.w3.org/2000/svg">
<g id="information 3" clip-path="url(#clip0_1352_31747)">
<path id="Vector" d="M14.9274 0.434814C6.9237 0.434814 0.43457 6.92394 0.43457 14.9276C0.43457 22.9311 6.9237 29.4202 14.9274 29.4202C22.9311 29.4202 29.4202 22.9311 29.4202 14.9276C29.4202 6.92394 22.9311 0.434814 14.9274 0.434814ZM16.2861 21.2681C16.2861 22.0192 15.6783 22.6268 14.9274 22.6268C14.1765 22.6268 13.5687 22.0192 13.5687 21.2681V14.9276C13.5687 14.1766 14.1765 13.5689 14.9274 13.5689C15.6783 13.5689 16.2861 14.1766 16.2861 14.9276V21.2681ZM14.9274 11.0779C14.0524 11.0779 13.3422 10.3679 13.3422 9.49286C13.3422 8.61786 14.0524 7.90764 14.9274 7.90764C15.8024 7.90764 16.5126 8.61786 16.5126 9.49286C16.5126 10.3679 15.8024 11.0779 14.9274 11.0779Z" fill="white"/>
<g id="Vector_2">
<path d="M14.928 11.0778C14.053 11.0778 13.3428 10.3678 13.3428 9.49281C13.3428 8.61781 14.053 7.90759 14.928 7.90759C15.803 7.90759 16.5132 8.61781 16.5132 9.49281C16.5132 10.3678 15.803 11.0778 14.928 11.0778Z" fill="#1E2839"/>
<path d="M16.2867 21.268C16.2867 22.0191 15.6789 22.6267 14.928 22.6267C14.1771 22.6267 13.5693 22.0191 13.5693 21.268V14.9276C13.5693 14.1765 14.1771 13.5689 14.928 13.5689C15.6789 13.5689 16.2867 14.1765 16.2867 14.9276V21.268Z" fill="#1E2839"/>
</g>
</g>
<defs>
<clipPath id="clip0_1352_31747">
<rect width="30" height="30" fill="white"/>
</clipPath>
</defs>
</svg>
