<svg width="40" height="41" viewBox="0 0 40 41" fill="none" xmlns="http://www.w3.org/2000/svg">
<g id="g15">
<g id="g17">
<g id="Clip path group">
<mask id="mask0_1152_493" style="mask-type:luminance" maskUnits="userSpaceOnUse" x="0" y="0" width="40" height="41">
<g id="clipPath23">
<path id="path21" d="M0 0.500004H40V40.5H0V0.500004Z" fill="white"/>
</g>
</mask>
<g mask="url(#mask0_1152_493)">
<g id="g19">
<g id="g25">
<path id="path27 (Stroke)" fill-rule="evenodd" clip-rule="evenodd" d="M19.4047 40.2926C19.7388 40.4991 20.156 40.5179 20.5073 40.3423L21.4971 39.8474C26.8521 37.1699 32.837 35.7744 38.8286 35.7744C39.4546 35.7744 39.962 35.267 39.962 34.6411V11.0473C39.962 10.4214 39.4546 9.914 38.8286 9.914C32.4897 9.914 26.1572 11.3894 20.4835 14.2263C20.4835 14.2263 20.4835 14.2263 20.4835 14.2263L19.4937 14.7211C19.1097 14.9131 18.8672 15.3055 18.8672 15.7348V39.3286C18.8672 39.7214 19.0706 40.0861 19.4047 40.2926ZM21.1339 37.5022C26.2979 35.036 31.9781 33.6818 37.6953 33.5234V12.1973C32.0847 12.3618 26.5144 13.745 21.4971 16.2537L21.1339 16.4353V37.5022Z" fill="#DCBDA1"/>
</g>
<g id="g29">
<path id="path31 (Stroke)" fill-rule="evenodd" clip-rule="evenodd" d="M23.6284 23.4747C23.8501 24.0601 24.5043 24.3549 25.0896 24.1333C28.0242 23.0222 31.0827 22.2735 34.1971 21.9033C34.8187 21.8294 35.2626 21.2656 35.1887 20.6441C35.1149 20.0225 34.5511 19.5785 33.9295 19.6524C30.6322 20.0444 27.394 20.8371 24.287 22.0135C23.7017 22.2351 23.4068 22.8893 23.6284 23.4747Z" fill="#DCBDA1"/>
</g>
<g id="g33">
<path id="path35 (Stroke)" fill-rule="evenodd" clip-rule="evenodd" d="M21.0142 39.8351C21.2941 39.2753 21.0672 38.5945 20.5073 38.3146L19.5176 37.8198C19.5176 37.8198 19.5176 37.8198 19.5176 37.8198C14.182 35.152 8.26395 33.6882 2.30573 33.5232V12.197C7.91638 12.3615 13.4866 13.7448 18.5039 16.2534L19.4937 16.7483C20.0536 17.0282 20.7343 16.8012 21.0142 16.2414C21.2941 15.6815 21.0672 15.0008 20.5073 14.7209L19.5176 14.2261C19.5176 14.2261 19.5176 14.2261 19.5176 14.2261C13.8438 11.3892 7.51138 9.91375 1.1724 9.91375C0.546473 9.91375 0.0390625 10.4212 0.0390625 11.0471V34.6408C0.0390625 35.2668 0.546473 35.7742 1.1724 35.7742C7.16403 35.7742 13.1489 37.1697 18.5039 39.8472L19.4937 40.342C20.0536 40.6219 20.7343 40.395 21.0142 39.8351Z" fill="#DCBDA1"/>
</g>
<g id="g37">
<path id="path39 (Stroke)" fill-rule="evenodd" clip-rule="evenodd" d="M20.0005 17.2705C20.6264 17.2705 21.1339 16.7631 21.1339 16.1372C21.1339 13.634 22.1319 11.7235 23.6621 10.4215C25.2122 9.10277 27.3627 8.36652 29.6889 8.36652C32.5366 8.36652 35.6497 9.47131 38.0272 11.8489C38.4698 12.2915 39.1874 12.2916 39.63 11.849C40.0726 11.4064 40.0726 10.6888 39.63 10.2462C36.8006 7.41663 33.0987 6.09986 29.6889 6.09986C26.9031 6.09986 24.2095 6.97982 22.1933 8.69515C20.1574 10.4273 18.8672 12.9688 18.8672 16.1372C18.8672 16.7631 19.3746 17.2705 20.0005 17.2705Z" fill="#DCBDA1"/>
</g>
<g id="g41">
<path id="path43 (Stroke)" fill-rule="evenodd" clip-rule="evenodd" d="M20.0005 17.2705C20.6264 17.2705 21.1339 16.7631 21.1339 16.1372C21.1339 12.9688 19.8437 10.4273 17.8077 8.69515C15.7916 6.97982 13.0979 6.09986 10.3122 6.09986C6.90235 6.09986 3.20047 7.41663 0.370996 10.2462C-0.0715914 10.6888 -0.0715806 11.4064 0.37102 11.849C0.813621 12.2916 1.53121 12.2915 1.9738 11.8489C4.35135 9.47131 7.46447 8.36652 10.3122 8.36652C12.6384 8.36652 14.7889 9.10277 16.3389 10.4215C17.8692 11.7235 18.8672 13.634 18.8672 16.1372C18.8672 16.7631 19.3746 17.2705 20.0005 17.2705Z" fill="#DCBDA1"/>
</g>
<g id="g45">
<path id="path47 (Stroke)" fill-rule="evenodd" clip-rule="evenodd" d="M29.3755 31.0088C30.0014 31.0088 30.5089 30.5014 30.5089 29.8755V18.0786C30.5089 17.4527 30.0014 16.9452 29.3755 16.9452C28.7496 16.9452 28.2422 17.4527 28.2422 18.0786V29.8755C28.2422 30.5014 28.7496 31.0088 29.3755 31.0088Z" fill="#DCBDA1"/>
</g>
<g id="g49">
<path id="path51 (Stroke)" fill-rule="evenodd" clip-rule="evenodd" d="M20.0005 5.14941C20.6264 5.14941 21.1339 4.642 21.1339 4.01608V1.67233C21.1339 1.04641 20.6264 0.538998 20.0005 0.538998C19.3746 0.538998 18.8672 1.04641 18.8672 1.67233V4.01608C18.8672 4.642 19.3746 5.14941 20.0005 5.14941Z" fill="#DCBDA1"/>
</g>
<g id="g53">
<path id="path55 (Stroke)" fill-rule="evenodd" clip-rule="evenodd" d="M16.1144 4.81747C16.557 4.37487 16.557 3.65729 16.1144 3.21469L13.7707 0.870943C13.3281 0.428349 12.6105 0.428349 12.1679 0.870943C11.7253 1.31354 11.7253 2.03112 12.1679 2.47372L14.5116 4.81747C14.9542 5.26006 15.6718 5.26006 16.1144 4.81747Z" fill="#DCBDA1"/>
</g>
<g id="g57">
<path id="path59 (Stroke)" fill-rule="evenodd" clip-rule="evenodd" d="M23.8866 4.81747C24.3292 5.26006 25.0468 5.26006 25.4894 4.81747L27.8332 2.47372C28.2758 2.03112 28.2758 1.31354 27.8332 0.870943C27.3906 0.428349 26.673 0.428349 26.2304 0.870943L23.8866 3.21469C23.444 3.65729 23.444 4.37487 23.8866 4.81747Z" fill="#DCBDA1"/>
</g>
</g>
</g>
</g>
</g>
</g>
</svg>
