<svg width="46" height="28" viewBox="0 0 46 28" fill="none" xmlns="http://www.w3.org/2000/svg">
<g id="arrow 2" clip-path="url(#clip0_702_2761)">
<path id="Vector" fill-rule="evenodd" clip-rule="evenodd" d="M6.19957 12.9131C6.09957 12.9131 6.09956 12.8131 6.09956 12.7131C7.19956 12.1131 8.19957 11.5131 9.19957 10.8131C9.49956 10.6131 9.79956 10.5131 10.0996 10.7131C11.4996 11.3131 12.7996 12.0131 14.0996 12.9131L6.19957 12.9131ZM5.79956 15.2131L14.3996 15.2131C12.7996 16.1131 11.4996 16.8131 10.0996 17.4131C9.79956 17.6131 9.49956 17.5131 9.19957 17.3131C8.53682 16.8492 7.83015 16.4292 7.05046 15.9658C6.65368 15.73 6.238 15.4829 5.79956 15.2131ZM16.9996 3.91312C16.9996 3.91312 16.8996 3.81312 16.8996 3.71312C17.0583 3.57704 17.2222 3.42552 17.389 3.2714C17.9573 2.74602 18.5583 2.19044 19.0996 2.11312C19.6189 2.11312 19.9275 2.61874 20.2442 3.13767C20.4154 3.41818 20.589 3.70259 20.7996 3.91312C24.3996 7.71312 28.9996 9.91312 33.7996 11.7131C35.2376 12.2662 36.7368 12.6358 38.2465 13.0079C39.4663 13.3086 40.6929 13.6109 41.8996 14.0131C41.3446 14.1412 40.7715 14.2875 40.1879 14.4364C39.4044 14.6364 38.602 14.8412 37.7996 15.0131C32.8996 16.2131 28.3996 18.3131 24.1996 21.1131C22.3996 22.3131 20.8996 23.7131 19.6996 25.4131C19.2996 26.0131 18.9996 26.0131 18.4996 25.6131C17.9996 25.1131 17.3996 24.7131 16.7996 24.3131C17.1374 23.8908 17.618 23.6112 18.0604 23.3537C18.1418 23.3063 18.2219 23.2597 18.2996 23.2131C20.9996 21.5131 21.7996 18.9131 21.3996 15.9131C21.2996 15.1131 21.4996 14.9131 22.2996 14.9131C23.9625 14.9796 25.5812 14.9577 27.2145 14.9355C28.0366 14.9243 28.8625 14.9131 29.6996 14.9131C30.1996 14.9131 30.8996 14.9131 30.8996 14.1131C30.8996 13.2131 30.2996 13.2131 29.6996 13.2131L22.2996 13.2131C22.2536 13.2131 22.2077 13.214 22.1623 13.2148C21.7128 13.2231 21.3087 13.2305 21.3996 12.4131C21.9996 8.71312 20.7996 6.01312 17.4996 4.21312C17.3996 4.16312 17.3246 4.11312 17.2496 4.06312C17.1746 4.01312 17.0996 3.96312 16.9996 3.91312Z" fill="#DCBDA1"/>
<path id="Vector_2" fill-rule="evenodd" clip-rule="evenodd" d="M1.5 14C1.5 13.5 2.19957 12.9131 2.79956 12.5131C4.69957 11.3131 6.59956 10.3131 8.49956 9.21312C9.39957 8.71312 10.2996 8.71312 11.1996 9.21312L17.1996 12.8131C18.5996 13.6131 19.8996 13.1131 19.9996 11.6131C20.1996 9.51313 19.6996 7.71312 17.8996 6.41312C16.8996 5.71312 15.8996 5.11312 14.8996 4.61312C14.4996 4.41312 14.0996 4.11312 14.0996 3.51312C14.1996 2.91312 14.5996 2.71312 15.0996 2.61312C16.4996 2.31312 17.6996 1.41312 18.6996 0.513124C19.4996 -0.186876 20.2996 -0.186876 20.8996 0.613124C24.3996 5.81312 29.7996 8.11312 35.2996 10.4131C37.9996 11.5131 40.9996 12.0131 43.7996 12.9131C43.9996 13.0131 44.3996 13.1131 44.6996 13.4131C45.2996 13.9131 44.9996 14.8131 44.0996 15.0131C42.2996 15.5131 40.4996 16.0131 38.7996 16.5131C33.8996 17.8131 29.3996 20.0131 25.1996 22.9131C23.4996 24.1131 22.0996 25.5131 20.8996 27.2131C20.1996 28.3131 19.3996 28.4131 18.3996 27.5131C17.3996 26.6131 16.2996 25.8131 14.8996 25.5131C14.3996 25.4131 13.9996 25.1131 13.9996 24.6131C13.9996 24.1131 14.2996 23.8131 14.6996 23.6131C15.7996 23.1131 16.7996 22.5131 17.6996 21.8131C19.5996 20.4131 20.3996 17.9131 19.6996 15.7131C19.4996 15.0131 17.8996 14.7131 17.0996 15.3131C15.1996 16.6131 13.0996 17.6131 11.1996 18.8131C10.0996 19.5131 9.19956 19.4131 8.09956 18.8131C6.19956 17.6131 4.19957 16.6131 2.29956 15.4131C2 15 1.5 15 1.5 14ZM6.19957 12.9131C6.09957 12.9131 6.09956 12.8131 6.09956 12.7131C7.19956 12.1131 8.19957 11.5131 9.19957 10.8131C9.49956 10.6131 9.79956 10.5131 10.0996 10.7131C11.4996 11.3131 12.7996 12.0131 14.0996 12.9131L6.19957 12.9131ZM5.79956 15.2131L14.3996 15.2131C12.7996 16.1131 11.4996 16.8131 10.0996 17.4131C9.79956 17.6131 9.49956 17.5131 9.19957 17.3131C8.53682 16.8492 7.83015 16.4292 7.05046 15.9658C6.65368 15.73 6.238 15.4829 5.79956 15.2131ZM16.9996 3.91312C16.9996 3.91312 16.8996 3.81312 16.8996 3.71312C17.0583 3.57704 17.2222 3.42552 17.389 3.2714C17.9573 2.74602 18.5583 2.19044 19.0996 2.11312C19.6189 2.11312 19.9275 2.61874 20.2442 3.13767C20.4154 3.41818 20.589 3.70259 20.7996 3.91312C24.3996 7.71312 28.9996 9.91312 33.7996 11.7131C35.2376 12.2662 36.7368 12.6358 38.2465 13.0079C39.4663 13.3086 40.6929 13.6109 41.8996 14.0131C41.3446 14.1412 40.7715 14.2875 40.1879 14.4364C39.4044 14.6364 38.602 14.8412 37.7996 15.0131C32.8996 16.2131 28.3996 18.3131 24.1996 21.1131C22.3996 22.3131 20.8996 23.7131 19.6996 25.4131C19.2996 26.0131 18.9996 26.0131 18.4996 25.6131C17.9996 25.1131 17.3996 24.7131 16.7996 24.3131C17.1374 23.8908 17.618 23.6112 18.0604 23.3537C18.1418 23.3063 18.2219 23.2597 18.2996 23.2131C20.9996 21.5131 21.7996 18.9131 21.3996 15.9131C21.2996 15.1131 21.4996 14.9131 22.2996 14.9131C23.9625 14.9796 25.5812 14.9577 27.2145 14.9355C28.0366 14.9243 28.8625 14.9131 29.6996 14.9131C30.1996 14.9131 30.8996 14.9131 30.8996 14.1131C30.8996 13.2131 30.2996 13.2131 29.6996 13.2131L22.2996 13.2131C22.2536 13.2131 22.2077 13.214 22.1623 13.2148C21.7128 13.2231 21.3087 13.2305 21.3996 12.4131C21.9996 8.71312 20.7996 6.01312 17.4996 4.21312C17.3996 4.16312 17.3246 4.11312 17.2496 4.06312C17.1746 4.01312 17.0996 3.96312 16.9996 3.91312Z" fill="#916A4E"/>
</g>
<defs>
<clipPath id="clip0_702_2761">
<rect width="28" height="45" fill="white" transform="translate(45.5) rotate(90)"/>
</clipPath>
</defs>
</svg>
