<svg width="20" height="21" viewBox="0 0 20 21" fill="none" xmlns="http://www.w3.org/2000/svg">
<g id="check (1) 1" clip-path="url(#clip0_1660_818)">
<path id="Vector" d="M16.5967 6.48246C16.6846 6.57037 16.734 6.68959 16.734 6.81391C16.734 6.93822 16.6846 7.05745 16.5967 7.14535L9.45703 14.2851C9.4135 14.3286 9.36183 14.3632 9.30495 14.3867C9.24808 14.4103 9.18713 14.4224 9.12557 14.4224C9.06401 14.4224 9.00305 14.4103 8.94618 14.3867C8.88931 14.3632 8.83763 14.3286 8.7941 14.2851L5.00895 10.5C4.96541 10.4564 4.93087 10.4048 4.90731 10.3479C4.88374 10.291 4.87161 10.23 4.87161 10.1685C4.8716 10.1069 4.88372 10.046 4.90728 9.98907C4.93083 9.93219 4.96536 9.88051 5.00889 9.83697C5.05241 9.79344 5.10409 9.7589 5.16097 9.73534C5.21784 9.71177 5.2788 9.69964 5.34037 9.69963C5.40193 9.69963 5.4629 9.71175 5.51978 9.7353C5.57665 9.75886 5.62834 9.79339 5.67188 9.83691L9.12559 13.2906L15.9336 6.48246C15.9771 6.43891 16.0288 6.40436 16.0857 6.38079C16.1426 6.35721 16.2036 6.34508 16.2651 6.34508C16.3267 6.34508 16.3877 6.35721 16.4446 6.38079C16.5015 6.40436 16.5531 6.43891 16.5967 6.48246ZM20 2.84523V18.2974C19.9993 18.9003 19.7595 19.4782 19.3332 19.9045C18.9069 20.3308 18.329 20.5706 17.7261 20.5713H2.27391C1.67104 20.5706 1.09306 20.3308 0.666765 19.9045C0.240473 19.4782 0.000682364 18.9003 0 18.2974L0 2.84523C0.000672027 2.24236 0.240458 1.66437 0.666752 1.23807C1.09304 0.811768 1.67103 0.571971 2.27391 0.571289L17.7261 0.571289C18.329 0.571971 18.907 0.811768 19.3332 1.23807C19.7595 1.66437 19.9993 2.24236 20 2.84523ZM19.0625 2.84523C19.0621 2.49092 18.9212 2.15123 18.6706 1.90068C18.4201 1.65014 18.0804 1.5092 17.7261 1.50879H2.27391C1.91959 1.5092 1.5799 1.65014 1.32937 1.90068C1.07883 2.15123 0.937903 2.49092 0.9375 2.84523V18.2974C0.937903 18.6517 1.07883 18.9914 1.32937 19.2419C1.57991 19.4925 1.91959 19.6334 2.27391 19.6338H17.7261C18.0804 19.6334 18.4201 19.4925 18.6706 19.2419C18.9212 18.9914 19.0621 18.6517 19.0625 18.2974V2.84523Z" fill="#1E2839"/>
</g>
<defs>
<clipPath id="clip0_1660_818">
<rect width="20" height="20" fill="white" transform="translate(0 0.571289)"/>
</clipPath>
</defs>
</svg>
