<svg width="21" height="20" viewBox="0 0 21 20" fill="none" xmlns="http://www.w3.org/2000/svg">
<g id="check (1) 1" clip-path="url(#clip0_1514_1758)">
<path id="Vector" d="M17.0967 5.91117C17.1846 5.99908 17.234 6.1183 17.234 6.24262C17.234 6.36693 17.1846 6.48616 17.0967 6.57406L9.95703 13.7138C9.9135 13.7574 9.86183 13.7919 9.80495 13.8154C9.74808 13.839 9.68713 13.8511 9.62557 13.8511C9.56401 13.8511 9.50305 13.839 9.44618 13.8154C9.38931 13.7919 9.33763 13.7574 9.2941 13.7138L5.50895 9.92867C5.46541 9.88514 5.43087 9.83347 5.40731 9.77659C5.38374 9.71971 5.37161 9.65875 5.37161 9.59719C5.3716 9.53563 5.38372 9.47466 5.40728 9.41778C5.43083 9.3609 5.46536 9.30922 5.50889 9.26568C5.55241 9.22215 5.60409 9.18761 5.66097 9.16405C5.71784 9.14048 5.7788 9.12835 5.84037 9.12834C5.90193 9.12834 5.9629 9.14046 6.01978 9.16401C6.07665 9.18757 6.12834 9.2221 6.17188 9.26562L9.62559 12.7193L16.4336 5.91117C16.4771 5.86762 16.5288 5.83307 16.5857 5.8095C16.6426 5.78592 16.7036 5.77379 16.7651 5.77379C16.8267 5.77379 16.8877 5.78592 16.9446 5.8095C17.0015 5.83307 17.0531 5.86762 17.0967 5.91117ZM20.5 2.27395V17.7261C20.4993 18.329 20.2595 18.9069 19.8332 19.3332C19.4069 19.7595 18.829 19.9993 18.2261 20H2.77391C2.17104 19.9993 1.59306 19.7595 1.16677 19.3332C0.740473 18.9069 0.500682 18.329 0.5 17.7261L0.5 2.27395C0.500672 1.67107 0.740458 1.09308 1.16675 0.666779C1.59304 0.240478 2.17103 0.000682383 2.77391 0L18.2261 0C18.829 0.000682383 19.407 0.240478 19.8332 0.666779C20.2595 1.09308 20.4993 1.67107 20.5 2.27395ZM19.5625 2.27395C19.5621 1.91963 19.4212 1.57994 19.1706 1.32939C18.9201 1.07885 18.5804 0.937914 18.2261 0.9375H2.77391C2.41959 0.937914 2.0799 1.07885 1.82937 1.32939C1.57883 1.57994 1.4379 1.91963 1.4375 2.27395V17.7261C1.4379 18.0804 1.57883 18.4201 1.82937 18.6706C2.07991 18.9212 2.41959 19.0621 2.77391 19.0625H18.2261C18.5804 19.0621 18.9201 18.9212 19.1706 18.6706C19.4212 18.4201 19.5621 18.0804 19.5625 17.7261V2.27395Z" fill="white"/>
</g>
<defs>
<clipPath id="clip0_1514_1758">
<rect width="20" height="20" fill="white" transform="translate(0.5)"/>
</clipPath>
</defs>
</svg>
