<svg width="34" height="34" viewBox="0 0 34 34" fill="none" xmlns="http://www.w3.org/2000/svg">
<rect width="34" height="34" rx="17" fill="#DCBDA1"/>
<g clip-path="url(#clip0_702_3065)">
<path d="M17 10C13.14 10 10 13.14 10 17C10 20.86 13.14 24 17 24C20.86 24 24 20.86 24 17C24 13.14 20.86 10 17 10ZM20.3291 20.6207C20.2153 20.7345 20.066 20.7917 19.9167 20.7917C19.7674 20.7917 19.618 20.7345 19.5043 20.6207L16.5876 17.7041C16.4779 17.595 16.4167 17.4468 16.4167 17.2917V13.5C16.4167 13.1774 16.678 12.9167 17 12.9167C17.322 12.9167 17.5833 13.1774 17.5833 13.5V17.0502L20.3291 19.7959C20.5571 20.024 20.5571 20.3927 20.3291 20.6207Z" fill="white"/>
</g>
<defs>
<clipPath id="clip0_702_3065">
<rect width="14" height="14" fill="white" transform="translate(10 10)"/>
</clipPath>
</defs>
</svg>
