<svg width="111" height="110" viewBox="0 0 111 110" fill="none" xmlns="http://www.w3.org/2000/svg">
<g id="&#209;&#131;&#208;&#179;&#208;&#190;&#208;&#187;&#208;&#190;&#208;&#186;" clip-path="url(#clip0_702_2672)">
<g id="Group">
<g id="Group_2">
<g id="Group_3">
<path id="Vector" d="M37.2556 10.372C37.185 14.7466 33.0221 16.5811 29.4236 14.3232C26.3896 12.4181 25.9663 8.04356 27.0247 4.939C28.4358 0.917193 33.0927 -0.846767 36.9028 0.564395C40.7129 1.97556 42.9708 6.56183 43.1119 10.372C43.3236 14.7466 42.0535 19.2623 39.1606 22.5785C35.6327 26.7414 28.9297 27.3059 23.9201 26.6709C13.9009 25.4008 7.69176 17.1455 6.56283 7.47909C6.35115 5.64458 7.6212 6.84406 7.69176 7.97299C8.46789 14.8171 12.7719 20.8851 19.475 23.143C26.4602 25.4714 35.9855 24.7658 40.0073 17.7806C41.7713 14.676 42.7591 10.2309 41.2068 6.84407C39.7251 3.5984 36.1972 2.18724 32.881 2.82226C29.9175 3.38673 26.6013 7.05575 27.9419 10.2309C29.4236 13.7588 36.0561 13.5471 36.1267 9.24304C36.0561 7.47909 37.2556 9.52527 37.2556 10.372Z" fill="#DCBDA1"/>
</g>
<g id="Group_4">
<path id="Vector_2" d="M10.3022 37.3252C14.6768 37.2546 16.5113 33.0917 14.2535 29.4932C12.3484 26.4592 7.9738 26.0359 4.86924 27.0942C0.847433 28.5054 -0.916518 33.1622 0.494643 36.9724C1.9058 40.7825 6.49208 43.0404 10.3728 43.1815C14.7474 43.3931 19.2631 42.1231 22.5793 39.2302C26.7422 35.7023 27.3067 28.9993 26.6717 23.9897C25.4016 13.9704 17.1463 7.76133 7.47989 6.6324C5.64538 6.42073 6.84487 7.69078 7.9738 7.76134C14.8179 8.53747 20.8859 12.8415 23.1438 19.5445C25.4722 26.5298 24.7666 36.0551 17.7814 40.0769C14.6768 41.8409 10.2317 42.8287 6.84487 41.2764C3.5992 39.7947 2.18804 36.2668 2.82306 32.9506C3.38752 29.9871 7.05654 26.6709 10.2317 28.0115C13.7596 29.4932 13.5479 36.1257 9.24384 36.1962C7.47989 36.1257 9.52607 37.3252 10.3022 37.3252Z" fill="#DCBDA1"/>
</g>
<path id="Vector_3" d="M6.28074 109.294C6.28074 109.294 5.43404 91.2316 5.43404 84.8814C5.43404 77.9667 5.78683 70.6992 7.19799 64.1373C8.75027 57.0815 7.62134 50.9429 4.37567 45.5805C3.3173 43.8871 2.54116 44.1694 3.10563 46.0039C4.86958 50.1668 5.36348 57.0815 4.86958 64.0667C4.37567 70.7697 4.02288 78.8134 4.30511 85.2341C4.51679 91.6549 5.29293 109.294 5.29293 109.294C5.36349 110.141 6.28074 110.282 6.28074 109.294Z" fill="#DCBDA1"/>
<path id="Vector_4" d="M10.7957 74.5798C9.80788 76.9082 9.03174 79.66 8.89063 86.5747C8.74951 92.9955 9.17286 109.294 9.17286 109.294C9.17286 110.353 8.25561 110.141 8.18505 109.294C8.18505 109.294 7.83226 93.3483 7.69114 86.998C7.55002 80.5773 8.39672 73.5215 9.59621 69.8524C9.80788 69.2174 10.1607 69.4996 10.584 70.558C11.0074 71.5458 11.5718 72.8159 10.7957 74.5798Z" fill="#DCBDA1"/>
<path id="Vector_5" d="M75.4988 11.9242C77.8272 10.9363 80.5789 10.1602 87.4936 10.0191C93.9144 9.87798 110.213 10.3013 110.213 10.3013C111.272 10.3013 111.06 9.38407 110.213 9.31351C110.213 9.31351 94.2672 8.96073 87.917 8.81961C81.4962 8.67849 74.4404 9.52519 70.7714 10.7247C70.1363 10.9364 70.4186 11.2891 71.477 11.7125C72.3942 12.1358 73.7348 12.7003 75.4988 11.9242Z" fill="#DCBDA1"/>
</g>
<g id="Group_5">
<path id="Vector_6" d="M30.2694 52.213C27.2354 50.0963 23.8487 51.9308 23.4959 55.4587C23.2136 58.4221 25.9654 60.8916 28.7172 61.7383C32.1745 62.7967 35.8435 60.6094 36.8313 57.3637C37.8192 54.1181 35.9141 50.3785 33.3034 48.3323C30.4106 46.0039 26.671 44.5927 22.9314 44.875C18.2746 45.1572 14.3939 49.2496 12.2066 52.9186C7.90254 60.1861 10.3015 68.3708 16.2989 73.9449C17.4279 75.0033 17.2868 73.5921 16.5812 72.9571C12.2771 69.0058 10.3721 63.1495 12.2771 57.646C14.3233 51.8602 19.7563 45.8628 26.6004 46.78C29.6344 47.1328 33.2329 48.7557 34.7146 51.4369C36.1258 54.0475 35.3496 57.0815 33.1623 58.9866C31.2573 60.68 26.9532 61.0328 25.4715 58.5632C23.8487 55.8115 27.3766 51.5074 30.4106 53.6242C31.61 54.4709 30.8339 52.6364 30.2694 52.213Z" fill="#DCBDA1"/>
</g>
<path id="Vector_7" d="M110.071 7.26741C110.071 7.26741 92.0079 6.42072 85.6577 6.42072C78.743 6.42072 71.4756 6.77351 64.9137 8.18467C57.8579 9.73695 51.7193 8.60802 46.3569 5.36235C44.6635 4.30398 44.9457 3.52784 46.7802 4.0923C51.0843 5.85625 57.999 6.27961 64.9842 5.7857C71.6872 5.2918 79.7308 4.939 86.1516 5.22123C92.5724 5.50347 110.212 6.2796 110.212 6.2796C110.988 6.2796 111.129 7.26741 110.071 7.26741Z" fill="#DCBDA1"/>
<g id="Group_6">
<path id="Vector_8" d="M53.0613 31.1867C50.9445 28.1527 52.779 24.7659 56.3069 24.4131C59.2704 24.1309 61.7399 26.9532 62.5866 29.6344C63.645 33.0918 61.4577 36.7608 58.212 37.7486C54.9663 38.7364 51.2268 36.8313 49.1806 34.2207C46.8522 31.3278 45.441 27.5882 45.7232 23.8487C46.0055 19.1918 50.0978 15.3111 53.7669 13.1238C61.0343 8.81979 69.2191 11.2188 74.7932 17.2162C75.8515 18.3451 74.4404 18.204 73.8053 17.4984C69.8541 13.1944 63.9978 11.2893 58.4942 13.1944C52.7085 15.2406 46.7111 20.6735 47.6283 27.5177C47.9811 30.5517 49.6039 34.1501 52.2851 35.6319C54.8958 37.043 57.9298 36.2669 59.8349 34.0796C61.5282 32.1745 61.881 27.8705 59.4115 26.3887C56.6597 24.7659 52.3557 28.2938 54.4724 31.3278C55.2486 32.5979 53.4846 31.7512 53.0613 31.1867Z" fill="#DCBDA1"/>
</g>
</g>
</g>
<defs>
<clipPath id="clip0_702_2672">
<rect width="110" height="110.847" fill="white" transform="translate(0 110) rotate(-90)"/>
</clipPath>
</defs>
</svg>
