<svg width="111" height="110" viewBox="0 0 111 110" fill="none" xmlns="http://www.w3.org/2000/svg">
<g id="&#209;&#131;&#208;&#179;&#208;&#190;&#208;&#187;&#208;&#190;&#208;&#186;" clip-path="url(#clip0_702_2687)">
<g id="Group">
<g id="Group_2">
<g id="Group_3">
<path id="Vector" d="M73.7444 99.628C73.815 95.2534 77.9779 93.4189 81.5764 95.6768C84.6104 97.5818 85.0337 101.956 83.9753 105.061C82.5642 109.083 77.9073 110.847 74.0972 109.436C70.2871 108.024 68.0292 103.438 67.8881 99.628C67.6764 95.2534 68.9465 90.7377 71.8394 87.4215C75.3673 83.2585 82.0703 82.6941 87.0799 83.3291C97.0991 84.5991 103.308 92.8544 104.437 102.521C104.649 104.355 103.379 103.156 103.308 102.027C102.532 95.1828 98.2281 89.1148 91.525 86.857C84.5398 84.5286 75.0145 85.2342 70.9927 92.2194C69.2287 95.324 68.2409 99.7691 69.7932 103.156C71.2749 106.402 74.8028 107.813 78.119 107.178C81.0825 106.613 84.3987 102.944 83.0581 99.7691C81.5764 96.2412 74.9439 96.4529 74.8733 100.757C74.9439 102.521 73.7444 100.475 73.7444 99.628Z" fill="#DCBDA1"/>
</g>
<g id="Group_4">
<path id="Vector_2" d="M100.698 72.6748C96.3232 72.7454 94.4887 76.9083 96.7465 80.5068C98.6516 83.5408 103.026 83.9641 106.131 82.9057C110.153 81.4946 111.917 76.8377 110.505 73.0276C109.094 69.2175 104.508 66.9596 100.627 66.8185C96.2526 66.6068 91.7369 67.8769 88.4207 70.7698C84.2578 74.2977 83.6933 81.0007 84.3283 86.0103C85.5984 96.0295 93.8537 102.239 103.52 103.368C105.355 103.579 104.155 102.309 103.026 102.239C96.1821 101.462 90.1141 97.1585 87.8562 90.4554C85.5278 83.4702 86.2334 73.9449 93.2186 69.9231C96.3232 68.1591 100.768 67.1713 104.155 68.7236C107.401 70.2053 108.812 73.7332 108.177 77.0494C107.612 80.0129 103.943 83.3291 100.768 81.9885C97.2404 80.5068 97.4521 73.8743 101.756 73.8037C103.52 73.8743 101.474 72.6748 100.698 72.6748Z" fill="#DCBDA1"/>
</g>
<path id="Vector_3" d="M104.719 0.705557C104.719 0.705557 105.566 18.7684 105.566 25.1186C105.566 32.0333 105.213 39.3008 103.802 45.8627C102.25 52.9185 103.379 59.0571 106.624 64.4195C107.683 66.1129 108.459 65.8306 107.894 63.9961C106.13 59.8332 105.637 52.9185 106.13 45.9333C106.624 39.2303 106.977 31.1866 106.695 24.7659C106.483 18.3451 105.707 0.705557 105.707 0.705557C105.637 -0.141139 104.719 -0.282256 104.719 0.705557Z" fill="#DCBDA1"/>
<path id="Vector_4" d="M100.204 35.4202C101.192 33.0918 101.968 30.34 102.109 23.4253C102.25 17.0045 101.827 0.705606 101.827 0.705606C101.827 -0.352765 102.744 -0.141091 102.815 0.705606C102.815 0.705606 103.168 16.6517 103.309 23.002C103.45 29.4227 102.603 36.4785 101.404 40.1476C101.192 40.7826 100.839 40.5004 100.416 39.442C99.9926 38.4542 99.4282 37.1841 100.204 35.4202Z" fill="#DCBDA1"/>
<path id="Vector_5" d="M35.5012 98.0758C33.1728 99.0637 30.4211 99.8398 23.5064 99.9809C17.0856 100.122 0.786682 99.6987 0.786682 99.6987C-0.271687 99.6987 -0.0600129 100.616 0.786682 100.686C0.786682 100.686 16.7328 101.039 23.083 101.18C29.5038 101.322 36.5596 100.475 40.2286 99.2753C40.8637 99.0636 40.5814 98.7109 39.523 98.2875C38.6058 97.8642 37.2652 97.2997 35.5012 98.0758Z" fill="#DCBDA1"/>
</g>
<g id="Group_5">
<path id="Vector_6" d="M80.7306 57.787C83.7646 59.9037 87.1513 58.0692 87.5041 54.5413C87.7864 51.5779 85.0346 49.1084 82.2828 48.2617C78.8255 47.2033 75.1565 49.3906 74.1687 52.6363C73.1808 55.8819 75.0859 59.6215 77.6966 61.6677C80.5894 63.9961 84.329 65.4073 88.0686 65.125C92.7254 64.8428 96.6061 60.7504 98.7934 57.0814C103.097 49.8139 100.698 41.6292 94.7011 36.0551C93.5721 34.9967 93.7132 36.4079 94.4188 37.0429C98.7229 40.9942 100.628 46.8505 98.7229 52.354C96.6767 58.1398 91.2437 64.1372 84.3996 63.22C81.3656 62.8672 77.7671 61.2443 76.2854 58.5631C74.8742 55.9525 75.6504 52.9185 77.8377 51.0134C79.7427 49.32 84.0468 48.9672 85.5285 51.4368C87.1513 54.1885 83.6234 58.4926 80.5894 56.3758C79.39 55.5291 80.1661 57.3636 80.7306 57.787Z" fill="#DCBDA1"/>
</g>
<path id="Vector_7" d="M0.929192 102.733C0.929192 102.733 18.9921 103.579 25.3423 103.579C32.257 103.579 39.5244 103.226 46.0863 101.815C53.1421 100.263 59.2807 101.392 64.6431 104.638C66.3365 105.696 66.0543 106.472 64.2198 105.908C59.9157 104.144 53.001 103.72 46.0158 104.214C39.3128 104.708 31.2692 105.061 24.8484 104.779C18.4276 104.497 0.788078 103.72 0.788078 103.72C0.0119399 103.72 -0.129173 102.733 0.929192 102.733Z" fill="#DCBDA1"/>
<g id="Group_6">
<path id="Vector_8" d="M57.9387 78.8133C60.0555 81.8473 58.221 85.2341 54.693 85.5869C51.7296 85.8691 49.2601 83.0468 48.4134 80.3656C47.355 76.9082 49.5423 73.2392 52.788 72.2514C56.0337 71.2636 59.7732 73.1687 61.8194 75.7793C64.1478 78.6722 65.559 82.4118 65.2768 86.1513C64.9945 90.8082 60.9022 94.6889 57.2331 96.8762C49.9657 101.18 41.7809 98.7812 36.2068 92.7838C35.1485 91.6549 36.5596 91.796 37.1947 92.5016C41.1459 96.8056 47.0022 98.7107 52.5058 96.8056C58.2915 94.7594 64.2889 89.3265 63.3717 82.4823C63.0189 79.4483 61.3961 75.8499 58.7149 74.3681C56.1042 72.957 53.0702 73.7331 51.1651 75.9204C49.4718 77.8255 49.119 82.1295 51.5885 83.6113C54.3403 85.2341 58.6443 81.7062 56.5276 78.6722C55.7514 77.4021 57.5154 78.2488 57.9387 78.8133Z" fill="#DCBDA1"/>
</g>
</g>
</g>
<defs>
<clipPath id="clip0_702_2687">
<rect width="110" height="110.847" fill="white" transform="translate(111) rotate(90)"/>
</clipPath>
</defs>
</svg>
