<svg width="54" height="54" viewBox="0 0 54 54" fill="none" xmlns="http://www.w3.org/2000/svg">
<g id="g2901">
<g id="g2903">
<g id="Clip path group">
<mask id="mask0_1590_823" style="mask-type:luminance" maskUnits="userSpaceOnUse" x="0" y="0" width="54" height="54">
<g id="clipPath2909">
<path id="path2907" d="M0 3.8147e-06H54V54H0V3.8147e-06Z" fill="white"/>
</g>
</mask>
<g mask="url(#mask0_1590_823)">
<g id="g2905">
<g id="g2911">
<path id="path2913 (Stroke)" fill-rule="evenodd" clip-rule="evenodd" d="M21.7273 39.0755C19.2846 39.0755 17.2683 37.2461 16.9721 34.8796C16.8937 34.2531 16.4385 33.7391 15.8261 33.5856C12.8224 32.8325 10.601 30.1229 10.601 26.8945C10.601 25.0559 11.3232 23.3893 12.5019 22.1468C13.062 21.5564 13.062 20.6311 12.5019 20.0407C11.3232 18.7982 10.601 17.1316 10.601 15.293C10.601 12.0646 12.8224 9.355 15.8261 8.60195C16.4385 8.4484 16.8937 7.93441 16.9721 7.3079C17.2683 4.94144 19.2846 3.11203 21.7273 3.11203C23.3945 3.11203 24.8636 3.96251 25.7262 5.26138C26.0097 5.68831 26.4882 5.94492 27.0007 5.94492C27.5132 5.94492 27.9917 5.68831 28.2752 5.26138C29.1378 3.96251 30.6069 3.11203 32.2741 3.11203C34.7169 3.11203 36.7331 4.94147 37.0293 7.30785C37.1077 7.93438 37.5629 8.4484 38.1754 8.60195C41.1791 9.355 43.4004 12.0646 43.4004 15.293C43.4004 17.1316 42.6782 18.7983 41.4995 20.0408C40.9396 20.6311 40.9396 21.5564 41.4995 22.1467C42.6782 23.3892 43.4004 25.0559 43.4004 26.8945C43.4004 30.1229 41.1791 32.8325 38.1754 33.5856C37.5629 33.7391 37.1077 34.2531 37.0293 34.8796C36.7331 37.246 34.7169 39.0755 32.2741 39.0755H21.7273ZM14.1284 36.263C15.008 39.6398 18.0715 42.1355 21.7273 42.1355H32.2741C35.9299 42.1355 38.9935 39.6399 39.8731 36.263C43.7098 34.8794 46.4604 31.2155 46.4604 26.8945C46.4604 24.7269 45.7636 22.7252 44.5908 21.0938C45.7636 19.4623 46.4604 17.4606 46.4604 15.293C46.4604 10.972 43.7098 7.30812 39.8731 5.92448C38.9935 2.54764 35.9299 0.0520325 32.2741 0.0520325C30.2426 0.0520325 28.3933 0.824238 27.0007 2.08686C25.6081 0.824238 23.7588 0.0520325 21.7273 0.0520325C18.0715 0.0520325 15.008 2.54768 14.1284 5.92448C10.2917 7.30812 7.54102 10.972 7.54102 15.293C7.54102 17.4606 8.23781 19.4623 9.41069 21.0938C8.23781 22.7252 7.54102 24.7269 7.54102 26.8945C7.54102 31.2155 10.2917 34.8794 14.1284 36.263Z" fill="#DCBDA1"/>
</g>
<g id="g2915">
<path id="path2917 (Stroke)" fill-rule="evenodd" clip-rule="evenodd" d="M21.252 48.1992C21.252 51.3743 23.8258 53.948 27.0007 53.948C30.1756 53.948 32.7495 51.3743 32.7495 48.1992V46.9336C32.7495 46.0886 32.0644 45.4036 31.2195 45.4036H22.782C21.937 45.4036 21.252 46.0886 21.252 46.9336V48.1992ZM24.3248 48.4636H29.6766C29.5438 49.8245 28.3964 50.888 27.0007 50.888C25.605 50.888 24.4576 49.8245 24.3248 48.4636Z" fill="#DCBDA1"/>
</g>
<g id="g2919">
<path id="path2921 (Stroke)" fill-rule="evenodd" clip-rule="evenodd" d="M27.0007 42.1355C27.8457 42.1355 28.5307 41.4505 28.5307 40.6055V4.41492C28.5307 3.56993 27.8457 2.88492 27.0007 2.88492C26.1557 2.88492 25.4707 3.56993 25.4707 4.41492V40.6055C25.4707 41.4505 26.1557 42.1355 27.0007 42.1355Z" fill="#DCBDA1"/>
</g>
<g id="g2923">
<path id="path2925 (Stroke)" fill-rule="evenodd" clip-rule="evenodd" d="M17.0108 38.7662C17.7424 38.3433 17.9926 37.4074 17.5697 36.6759C16.5087 34.8406 16.7659 32.4529 18.3343 30.8845C18.9318 30.287 18.9318 29.3182 18.3343 28.7207C17.7368 28.1232 16.768 28.1232 16.1705 28.7207C13.5978 31.2934 13.1836 35.2027 14.9205 38.2073C15.3434 38.9389 16.2792 39.1891 17.0108 38.7662Z" fill="#DCBDA1"/>
</g>
<g id="g2927">
<path id="path2929 (Stroke)" fill-rule="evenodd" clip-rule="evenodd" d="M18.3344 13.4667C18.9319 12.8692 18.9319 11.9005 18.3344 11.303C17.1941 10.1627 16.7464 8.59219 16.9959 7.10923C17.136 6.27594 16.5741 5.4868 15.7408 5.34664C14.9076 5.20648 14.1184 5.76838 13.9783 6.60167C13.5717 9.01893 14.301 11.5971 16.1706 13.4667C16.7681 14.0642 17.7369 14.0642 18.3344 13.4667Z" fill="#DCBDA1"/>
</g>
<g id="g2931">
<path id="path2933 (Stroke)" fill-rule="evenodd" clip-rule="evenodd" d="M36.9904 38.7662C37.7219 39.1891 38.6578 38.9389 39.0807 38.2073C40.8176 35.2027 40.4033 31.2934 37.8306 28.7207C37.2331 28.1232 36.2644 28.1232 35.6669 28.7207C35.0694 29.3182 35.0694 30.287 35.6669 30.8845C37.2353 32.4529 37.4924 34.8406 36.4315 36.6759C36.0086 37.4074 36.2588 38.3433 36.9904 38.7662Z" fill="#DCBDA1"/>
</g>
<g id="g2935">
<path id="path2937 (Stroke)" fill-rule="evenodd" clip-rule="evenodd" d="M35.6669 13.4667C36.2644 14.0642 37.2331 14.0642 37.8306 13.4667C39.7003 11.5971 40.4296 9.01893 40.023 6.60167C39.8828 5.76838 39.0937 5.20648 38.2604 5.34664C37.4271 5.4868 36.8652 6.27594 37.0054 7.10923C37.2548 8.59219 36.8071 10.1627 35.6669 11.303C35.0694 11.9005 35.0694 12.8692 35.6669 13.4667Z" fill="#DCBDA1"/>
</g>
<g id="g2939">
<path id="path2941 (Stroke)" fill-rule="evenodd" clip-rule="evenodd" d="M33.3288 22.0964C34.1738 22.0964 34.8588 21.4114 34.8588 20.5664C34.8588 16.5597 31.0676 13.763 27.0007 13.763C26.1557 13.763 25.4707 14.448 25.4707 15.293C25.4707 16.138 26.1557 16.823 27.0007 16.823C29.9237 16.823 31.7988 18.7483 31.7988 20.5664C31.7988 21.4114 32.4838 22.0964 33.3288 22.0964Z" fill="#DCBDA1"/>
</g>
<g id="g2943">
<path id="path2945 (Stroke)" fill-rule="evenodd" clip-rule="evenodd" d="M19.1426 21.6211C19.1426 25.6278 22.9338 28.4245 27.0007 28.4245C27.8457 28.4245 28.5307 27.7395 28.5307 26.8945C28.5307 26.0495 27.8457 25.3645 27.0007 25.3645C24.0777 25.3645 22.2026 23.4392 22.2026 21.6211C22.2026 20.7761 21.5176 20.0911 20.6726 20.0911C19.8276 20.0911 19.1426 20.7761 19.1426 21.6211Z" fill="#DCBDA1"/>
</g>
<g id="g2947">
<path id="path2949 (Stroke)" fill-rule="evenodd" clip-rule="evenodd" d="M47.9817 9.81354C48.4505 10.5166 49.4004 10.7066 50.1035 10.2379L53.2675 8.12851C53.9706 7.65979 54.1606 6.70986 53.6919 6.00678C53.2232 5.3037 52.2732 5.11372 51.5701 5.58244L48.4061 7.69181C47.703 8.16053 47.513 9.11046 47.9817 9.81354Z" fill="#DCBDA1"/>
</g>
<g id="g2951">
<path id="path2953 (Stroke)" fill-rule="evenodd" clip-rule="evenodd" d="M53.6919 36.1807C54.1606 35.4776 53.9706 34.5277 53.2675 34.059L50.1035 31.9496C49.4004 31.4809 48.4505 31.6709 47.9817 32.374C47.513 33.077 47.703 34.027 48.4061 34.4957L51.5701 36.6051C52.2732 37.0738 53.2232 36.8838 53.6919 36.1807Z" fill="#DCBDA1"/>
</g>
<g id="g2955">
<path id="path2957 (Stroke)" fill-rule="evenodd" clip-rule="evenodd" d="M6.02 9.81354C6.48872 9.11046 6.29873 8.16053 5.59565 7.69181L2.43159 5.58244C1.72851 5.11372 0.778579 5.3037 0.30986 6.00678C-0.158859 6.70986 0.0311268 7.65979 0.734206 8.12851L3.89827 10.2379C4.60135 10.7066 5.55128 10.5166 6.02 9.81354Z" fill="#DCBDA1"/>
</g>
<g id="g2959">
<path id="path2961 (Stroke)" fill-rule="evenodd" clip-rule="evenodd" d="M0.30986 36.1807C0.778579 36.8838 1.72851 37.0738 2.43159 36.6051L5.59565 34.4957C6.29873 34.027 6.48872 33.077 6.02 32.374C5.55128 31.6709 4.60135 31.4809 3.89827 31.9496L0.734206 34.059C0.0311268 34.5277 -0.158859 35.4776 0.30986 36.1807Z" fill="#DCBDA1"/>
</g>
<g id="g2963">
<path id="path2965 (Stroke)" fill-rule="evenodd" clip-rule="evenodd" d="M22.782 45.4036C22.462 45.4036 22.2026 45.1442 22.2026 44.8243V40.5072C22.2026 39.6622 21.5176 38.9772 20.6726 38.9772C19.8276 38.9772 19.1426 39.6622 19.1426 40.5072V44.8243C19.1426 46.8343 20.7721 48.4636 22.782 48.4636H31.2195C33.2293 48.4636 34.8588 46.8343 34.8588 44.8243V40.5072C34.8588 39.6622 34.1738 38.9772 33.3288 38.9772C32.4838 38.9772 31.7988 39.6622 31.7988 40.5072V44.8243C31.7988 45.1442 31.5394 45.4036 31.2195 45.4036H22.782Z" fill="#DCBDA1"/>
</g>
<g id="g2967">
<path id="path2969 (Stroke)" fill-rule="evenodd" clip-rule="evenodd" d="M0.0527344 21.0937C0.0527344 21.9387 0.737739 22.6237 1.58273 22.6237H4.7468C5.59179 22.6237 6.2768 21.9387 6.2768 21.0937C6.2768 20.2488 5.59179 19.5637 4.7468 19.5637H1.58273C0.737739 19.5637 0.0527344 20.2488 0.0527344 21.0937Z" fill="#DCBDA1"/>
</g>
<g id="g2971">
<path id="path2973 (Stroke)" fill-rule="evenodd" clip-rule="evenodd" d="M47.7246 21.0937C47.7246 21.9387 48.4096 22.6237 49.2546 22.6237H52.4187C53.2637 22.6237 53.9487 21.9387 53.9487 21.0937C53.9487 20.2488 53.2637 19.5637 52.4187 19.5637H49.2546C48.4096 19.5637 47.7246 20.2488 47.7246 21.0937Z" fill="#DCBDA1"/>
</g>
</g>
</g>
</g>
</g>
</g>
</svg>
