<svg width="40" height="41" viewBox="0 0 40 41" fill="none" xmlns="http://www.w3.org/2000/svg">
<g id="g2793">
<g id="g2795">
<path id="path2797 (Stroke)" fill-rule="evenodd" clip-rule="evenodd" d="M14.666 29.4477C14.666 30.0736 15.1734 30.5811 15.7993 30.5811H28.4441C29.07 30.5811 29.5774 30.0736 29.5774 29.4477C29.5774 28.8218 29.07 28.3144 28.4441 28.3144H15.7993C15.1734 28.3144 14.666 28.8218 14.666 29.4477Z" fill="#DCBDA1"/>
</g>
<g id="g2799">
<g id="Clip path group">
<mask id="mask0_1152_54" style="mask-type:luminance" maskUnits="userSpaceOnUse" x="0" y="0" width="40" height="41">
<g id="clipPath2805">
<path id="path2803" d="M0 0.500004H40V40.5H0V0.500004Z" fill="white"/>
</g>
</mask>
<g mask="url(#mask0_1152_54)">
<g id="g2801">
<g id="g2807">
<path id="path2809 (Stroke)" fill-rule="evenodd" clip-rule="evenodd" d="M35.0116 29.4487C35.0116 30.0746 35.519 30.582 36.1449 30.582H38.8292C39.4551 30.582 39.9625 30.0746 39.9625 29.4487V21.2984C39.9625 21.0042 39.8481 20.7216 39.6436 20.5102L32.9211 13.5642C32.7076 13.3436 32.4137 13.219 32.1067 13.219H26.606C25.9801 13.219 25.4727 13.7264 25.4727 14.3524V29.3747C25.4727 30.0006 25.9801 30.508 26.606 30.508C27.2319 30.508 27.7393 30.0006 27.7393 29.3747V15.4857H31.6264L37.6959 21.757V28.3154H36.1449C35.519 28.3154 35.0116 28.8228 35.0116 29.4487Z" fill="#DCBDA1"/>
</g>
<g id="g2811">
<path id="path2813 (Stroke)" fill-rule="evenodd" clip-rule="evenodd" d="M25.4707 21.2983C25.4707 21.9242 25.9781 22.4316 26.604 22.4316H38.8277C39.4536 22.4316 39.961 21.9242 39.961 21.2983C39.961 20.6724 39.4536 20.165 38.8277 20.165H26.604C25.9781 20.165 25.4707 20.6724 25.4707 21.2983Z" fill="#DCBDA1"/>
</g>
<g id="g2815">
<path id="path2817 (Stroke)" fill-rule="evenodd" clip-rule="evenodd" d="M8.6076 32.6032C10.4829 34.4786 13.5231 34.4786 15.3984 32.6032C17.2735 30.728 17.2735 27.6876 15.3984 25.8123C13.5231 23.937 10.4829 23.937 8.60762 25.8123M8.6076 32.6032C6.73236 30.728 6.73239 27.6875 8.60762 25.8123L8.6076 32.6032ZM13.7956 31.0005C12.8055 31.9906 11.2005 31.9906 10.2104 31.0005C9.22036 30.0105 9.22033 28.4051 10.2104 27.4151C11.2005 26.425 12.8055 26.4249 13.7956 27.415C14.7856 28.4051 14.7856 30.0104 13.7956 31.0005Z" fill="#DCBDA1"/>
<path id="path2817 (Stroke)_2" fill-rule="evenodd" clip-rule="evenodd" d="M29.008 32.6032C30.8832 34.4786 33.9235 34.4786 35.7988 32.6032C37.6739 30.728 37.6739 27.6876 35.7988 25.8123C33.9235 23.937 30.8833 23.937 29.008 25.8123M29.008 32.6032C27.1327 30.728 27.1328 27.6875 29.008 25.8123L29.008 32.6032ZM34.196 31.0005C33.2059 31.9906 31.6009 31.9906 30.6108 31.0005C29.6207 30.0105 29.6207 28.4051 30.6108 27.4151C31.6008 26.425 33.2059 26.4249 34.196 27.415C35.186 28.4051 35.186 30.0104 34.196 31.0005Z" fill="#DCBDA1"/>
</g>
<g id="g2823">
<path id="path2825 (Stroke)" fill-rule="evenodd" clip-rule="evenodd" d="M3.73828 29.435C3.73828 30.0609 4.24569 30.5684 4.87161 30.5684H8.18169C8.80761 30.5684 9.31503 30.0609 9.31503 29.435C9.31503 28.8091 8.80761 28.3017 8.18169 28.3017H6.00495V8.12378C6.00495 7.49785 5.49754 6.99045 4.87161 6.99045C4.24569 6.99045 3.73828 7.49785 3.73828 8.12378V29.435Z" fill="#DCBDA1"/>
</g>
<g id="g2827">
<path id="path2829 (Stroke)" fill-rule="evenodd" clip-rule="evenodd" d="M26.6376 15.4951C27.2635 15.4951 27.7709 14.9877 27.7709 14.3618V8.12405C27.7709 7.49813 27.2635 6.99072 26.6376 6.99072H4.87161C4.24569 6.99072 3.73828 7.49813 3.73828 8.12405C3.73828 8.74997 4.24569 9.25738 4.87161 9.25738H25.5042V14.3618C25.5042 14.9877 26.0116 15.4951 26.6376 15.4951Z" fill="#DCBDA1"/>
</g>
<g id="g2835">
<path id="path2837 (Stroke)" fill-rule="evenodd" clip-rule="evenodd" d="M1.67969 12.813C1.67969 13.4389 2.1871 13.9463 2.81302 13.9463H13.0029C13.6289 13.9463 14.1363 13.4389 14.1363 12.813C14.1363 12.187 13.6289 11.6796 13.0029 11.6796H2.81302C2.1871 11.6796 1.67969 12.187 1.67969 12.813Z" fill="#DCBDA1"/>
</g>
<g id="g2839">
<path id="path2841 (Stroke)" fill-rule="evenodd" clip-rule="evenodd" d="M0.0390625 17.5014C0.0390625 18.1274 0.546473 18.6348 1.1724 18.6348H12.1437C12.7696 18.6348 13.2771 18.1274 13.2771 17.5014C13.2771 16.8755 12.7696 16.3681 12.1437 16.3681H1.1724C0.546473 16.3681 0.0390625 16.8755 0.0390625 17.5014Z" fill="#DCBDA1"/>
</g>
</g>
</g>
</g>
</g>
</g>
</svg>
