<svg width="60" height="60" viewBox="0 0 60 60" fill="none" xmlns="http://www.w3.org/2000/svg">
<g id="&#208;&#190; &#208;&#186;&#208;&#190;&#208;&#188;&#208;&#191;&#208;&#176;&#208;&#189;&#208;&#184;&#208;&#184; &#208;&#184;&#208;&#186;" clip-path="url(#clip0_1590_136)">
<path id="Vector" d="M52.772 7.72021C52.1252 7.72021 51.6001 8.24527 51.6001 8.89209V17.8748H15.2734C14.6266 17.8748 14.1016 18.3994 14.1016 19.0466V52.7563C14.1016 53.0671 14.2252 53.3651 14.4449 53.5848C14.6646 53.8046 14.9631 53.9282 15.2734 53.9282H18.7204C19.3677 53.9282 19.8923 53.4036 19.8923 52.7563C19.8923 52.109 19.3677 51.5844 18.7204 51.5844H16.4453V20.2185H51.6001V40.6416C51.6001 41.2889 52.1252 41.8135 52.772 41.8135C55.4655 41.8135 57.6568 44.0052 57.6568 46.6992C57.6568 49.3931 55.4655 51.584 52.772 51.584H29.351C28.7037 51.584 28.1791 52.109 28.1791 52.7558C28.1791 53.4031 28.7037 53.9277 29.351 53.9277H52.772C56.7577 53.9277 60.0005 50.6854 60.0005 46.6992V14.9501C60.0005 10.9635 56.7577 7.72021 52.772 7.72021ZM53.9439 19.0466V10.2063C56.0734 10.7328 57.6568 12.6599 57.6568 14.9501V41.3749C56.6277 40.4287 55.324 39.7906 53.9439 39.5645V19.0466Z" fill="#DCBDA1"/>
<path id="Vector_2" d="M1.17187 13.8195H46.4918C47.1386 13.8195 47.6636 13.2949 47.6636 12.6476V3.16412C47.6636 2.51684 47.1386 1.99225 46.4918 1.99225H1.17187C0.524596 1.99225 0 2.51684 0 3.16412V12.6476C0 13.2949 0.524596 13.8195 1.17187 13.8195ZM2.34374 4.33599H7.80119V6.21374C7.80119 6.86101 8.32579 7.38561 8.97306 7.38561C9.62034 7.38561 10.1449 6.86101 10.1449 6.21374V4.33599H15.1162V6.21374C15.1162 6.86101 15.6408 7.38561 16.2881 7.38561C16.9354 7.38561 17.46 6.86101 17.46 6.21374V4.33599H22.4313V6.21374C22.4313 6.86101 22.9563 7.38561 23.6032 7.38561C24.2504 7.38561 24.775 6.86101 24.775 6.21374V4.33599H29.7468V6.21374C29.7468 6.86101 30.2714 7.38561 30.9187 7.38561C31.5655 7.38561 32.0905 6.86101 32.0905 6.21374V4.33599H37.0618V6.21374C37.0618 6.86101 37.5864 7.38561 38.2337 7.38561C38.881 7.38561 39.4056 6.86101 39.4056 6.21374V4.33599H45.3199V11.4757H2.34374V4.33599Z" fill="#DCBDA1"/>
<path id="Vector_3" d="M28.2368 46.5893H28.2391H45.9028C46.5501 46.5893 47.0747 46.0648 47.0747 45.4175V27.4324C47.0747 26.7852 46.5501 26.2606 45.9028 26.2606H34.0298C33.383 26.2606 32.8579 26.7852 32.8579 27.4324V33.6177H27.9924C27.3451 33.6177 26.8205 34.1423 26.8205 34.7896C26.8205 35.4369 27.3451 35.9615 27.9924 35.9615H32.8579V40.4851C32.8579 41.1324 33.383 41.657 34.0298 41.657H40.3277C40.975 41.657 41.4996 41.1324 41.4996 40.4851C41.4996 39.8383 40.975 39.3132 40.3277 39.3132H35.2017V28.6043H44.7309V44.2456H29.1977C28.5298 41.6693 26.8851 40.3409 25.5447 39.6693C24.805 39.2986 24.0955 39.0916 23.5352 38.9763V28.6043H28.2048C28.8521 28.6043 29.3767 28.0797 29.3767 27.4324C29.3767 26.7856 28.8521 26.2606 28.2048 26.2606H22.3633C21.716 26.2606 21.1914 26.7856 21.1914 27.4324V45.4175C21.1914 46.0648 21.716 46.5893 22.3633 46.5893H28.2332H28.2368ZM23.5356 41.3905C23.8313 41.4766 24.1591 41.5965 24.4946 41.7645C25.563 42.3001 26.3138 43.1328 26.7399 44.2456H23.5356V41.3905Z" fill="#DCBDA1"/>
<path id="Vector_4" d="M11.0852 45.2989V20.5806C11.0852 18.1805 9.13282 16.2286 6.73323 16.2286H4.35195C1.95236 16.2286 0 18.181 0 20.5806V45.2989C0 45.4394 0.025177 45.5831 0.0750731 45.715L1.81457 50.3466C1.81503 50.3471 1.81503 50.3475 1.81503 50.348L2.26821 51.5533L4.44579 57.3499C4.61745 57.8068 5.05462 58.1094 5.54259 58.1094H5.54305C6.03148 58.1094 6.46819 57.8068 6.63985 57.3495L7.65471 54.6473L11.0106 45.715C11.06 45.5831 11.0852 45.4394 11.0852 45.2989ZM7.46016 48.5014C6.83531 48.3599 6.19399 48.2881 5.54305 48.2881C4.89303 48.2881 4.2517 48.3599 3.62548 48.5018L2.86422 46.4749H8.22142L7.46016 48.5014ZM5.54259 53.605L4.67696 51.302L4.46044 50.7243C5.17135 50.6011 5.91613 50.6016 6.62474 50.7238L5.69686 53.1944L5.54259 53.605ZM2.34375 44.1311V23.1532H4.37072V44.1311H2.34375ZM6.71446 44.1311V23.1532H8.74144V44.1311H6.71446ZM2.34375 20.5806C2.34375 19.4733 3.24462 18.5724 4.35195 18.5724H6.73323C7.84056 18.5724 8.74144 19.4733 8.74144 20.5806V20.8095H2.34375V20.5806Z" fill="#DCBDA1"/>
<path id="Vector_5" d="M25.2137 52.3081C25.0278 51.8545 24.5577 51.5597 24.0688 51.5863C23.5808 51.6128 23.1528 51.9493 23.0104 52.4162C22.8699 52.8781 23.0356 53.3912 23.4183 53.6856C23.8106 53.9881 24.3695 54.0064 24.7811 53.7309C25.2397 53.4242 25.4261 52.8185 25.2137 52.3081Z" fill="#DCBDA1"/>
</g>
<defs>
<clipPath id="clip0_1590_136">
<rect width="60" height="60" fill="white"/>
</clipPath>
</defs>
</svg>
