<svg width="18" height="20" viewBox="0 0 18 20" fill="none" xmlns="http://www.w3.org/2000/svg">
<g id="_x38_2_attachment">
<path id="Vector" d="M17.7496 5.625C17.7496 6.96063 17.2296 8.21625 16.2852 9.16062L7.27899 18.2738C6.54649 19.0063 5.58461 19.3725 4.62336 19.3725C3.66336 19.3725 2.70336 19.0069 1.97274 18.2763C0.510863 16.8138 0.510863 14.435 1.97274 12.9731L8.47899 6.50375C9.45586 5.53312 11.0084 5.50125 11.9415 6.43313C12.3971 6.88875 12.6371 7.50375 12.6177 8.16562C12.5984 8.81312 12.3315 9.42688 11.8659 9.8925L5.69149 16.0669C5.44711 16.3113 5.05211 16.3113 4.80774 16.0669C4.56336 15.8225 4.56336 15.4275 4.80774 15.1831L10.9821 9.00875C11.2215 8.76937 11.359 8.45687 11.3684 8.12875C11.3777 7.815 11.2671 7.52625 11.0577 7.31687C10.6109 6.87187 9.84961 6.90375 9.36086 7.39L2.85524 13.8581C1.88211 14.8319 1.88211 16.4181 2.85649 17.3925C3.83149 18.3669 5.41711 18.3669 6.39211 17.3925L15.3984 8.27938C16.1096 7.56812 16.4996 6.62687 16.4996 5.625C16.4996 4.62313 16.1096 3.68187 15.4015 2.97375C14.6927 2.265 13.7515 1.875 12.7496 1.875C11.7477 1.875 10.8065 2.265 10.0977 2.97375L1.31524 11.6937C1.06961 11.9369 0.674613 11.9356 0.431488 11.69C0.188363 11.445 0.189613 11.05 0.434613 10.8063L9.21586 2.08812C10.1584 1.145 11.414 0.625 12.7496 0.625C14.0852 0.625 15.3409 1.145 16.2852 2.09C17.2296 3.03375 17.7496 4.28937 17.7496 5.625Z" fill="white"/>
</g>
</svg>
