<svg width="34" height="34" viewBox="0 0 34 34" fill="none" xmlns="http://www.w3.org/2000/svg">
<rect width="34" height="34" rx="17" fill="#DCBDA1"/>
<path d="M23.5389 13.1233C23.4819 12.7422 23.2902 12.3941 22.9986 12.1422C22.707 11.8902 22.3348 11.7511 21.9495 11.75H12.0523C11.667 11.7511 11.2948 11.8902 11.0032 12.1422C10.7116 12.3941 10.5199 12.7422 10.4629 13.1233L17.0009 17.3539L23.5389 13.1233Z" fill="white"/>
<path d="M17.2376 18.2422C17.1668 18.288 17.0843 18.3123 17 18.3123C16.9157 18.3123 16.8332 18.288 16.7624 18.2422L10.4375 14.1499V20.6358C10.438 21.0637 10.6082 21.4739 10.9107 21.7765C11.2133 22.0791 11.6235 22.2493 12.0514 22.2497H21.9486C22.3765 22.2493 22.7867 22.0791 23.0893 21.7765C23.3918 21.4739 23.562 21.0637 23.5625 20.6358V14.1494L17.2376 18.2422Z" fill="white"/>
</svg>
