<svg width="54" height="54" viewBox="0 0 54 54" fill="none" xmlns="http://www.w3.org/2000/svg">
<g id="Bending">
<path id="Vector (Stroke)" fill-rule="evenodd" clip-rule="evenodd" d="M0.580078 35.8594C0.580078 35.0144 1.26508 34.3294 2.11008 34.3294H13.2898C13.791 34.3294 14.2605 34.5749 14.5465 34.9867L19.3634 41.9231H34.638L39.4549 34.9867C39.7409 34.5749 40.2104 34.3294 40.7116 34.3294H51.8913C52.7363 34.3294 53.4213 35.0144 53.4213 35.8594V51.8906C53.4213 52.7356 52.7363 53.4206 51.8913 53.4206H2.11008C1.26508 53.4206 0.580078 52.7356 0.580078 51.8906V35.8594ZM3.64008 37.3894V50.3606H50.3613V37.3894H41.5119L36.6949 44.3258C36.409 44.7376 35.9395 44.9831 35.4382 44.9831H18.5632C18.0619 44.9831 17.5924 44.7376 17.3065 44.3258L12.4895 37.3894H3.64008Z" fill="#DCBDA1"/>
<path id="Vector (Stroke)_2" fill-rule="evenodd" clip-rule="evenodd" d="M8.90179 22.2851C9.40879 21.6091 10.3678 21.4721 11.0438 21.9791L27.0008 33.9469L42.9578 21.9791C43.6338 21.4721 44.5928 21.6091 45.0998 22.2851C45.6068 22.9611 45.4698 23.9201 44.7938 24.4271L27.9188 37.0834C27.3748 37.4914 26.6268 37.4914 26.0828 37.0834L9.20779 24.4271C8.5318 23.9201 8.3948 22.9611 8.90179 22.2851Z" fill="#DCBDA1"/>
<path id="Vector (Stroke)_3" fill-rule="evenodd" clip-rule="evenodd" d="M22.782 9.01688C23.6269 9.01688 24.312 9.70188 24.312 10.5469V18.3506L27.0007 21.0394L29.6895 18.3506V10.5469C29.6895 9.70188 30.3745 9.01688 31.2195 9.01688C32.0644 9.01688 32.7495 9.70188 32.7495 10.5469V18.9844C32.7495 19.3902 32.5883 19.7793 32.3013 20.0662L28.0826 24.285C27.4851 24.8825 26.5163 24.8825 25.9188 24.285L21.7001 20.0662C21.4131 19.7793 21.252 19.3902 21.252 18.9844V10.5469C21.252 9.70188 21.937 9.01688 22.782 9.01688Z" fill="#DCBDA1"/>
<path id="Vector (Stroke)_4" fill-rule="evenodd" clip-rule="evenodd" d="M18.5632 0.579376C19.4082 0.579376 20.0932 1.26438 20.0932 2.10938V9.01688H33.9082V2.10938C33.9082 1.26438 34.5932 0.579376 35.4382 0.579376C36.2832 0.579376 36.9682 1.26438 36.9682 2.10938V10.5469C36.9682 11.3919 36.2832 12.0769 35.4382 12.0769H18.5632C17.7182 12.0769 17.0332 11.3919 17.0332 10.5469V2.10938C17.0332 1.26438 17.7182 0.579376 18.5632 0.579376Z" fill="#DCBDA1"/>
<path id="Vector (Stroke)_5" fill-rule="evenodd" clip-rule="evenodd" d="M4.37695 2.10938C4.37695 1.26438 5.06196 0.579376 5.90695 0.579376H48.0945C48.9394 0.579376 49.6245 1.26438 49.6245 2.10938C49.6245 2.95437 48.9394 3.63938 48.0945 3.63938H5.90695C5.06196 3.63938 4.37695 2.95437 4.37695 2.10938Z" fill="#DCBDA1"/>
</g>
</svg>
