<svg width="54" height="48" viewBox="0 0 54 48" fill="none" xmlns="http://www.w3.org/2000/svg">
<g id="Group">
<path id="Vector (Stroke)" fill-rule="evenodd" clip-rule="evenodd" d="M18.1647 3.30246C17.1406 3.30246 16.2963 4.14675 16.2963 5.17088V9.86719C16.2963 10.7122 15.6113 11.3972 14.7663 11.3972C13.9213 11.3972 13.2363 10.7122 13.2363 9.86719V5.17088C13.2363 2.45676 15.4506 0.242462 18.1647 0.242462H35.8367C38.5509 0.242462 40.7651 2.4568 40.7651 5.17088V9.86719C40.7651 10.7122 40.0801 11.3972 39.2351 11.3972C38.3901 11.3972 37.7051 10.7122 37.7051 9.86719V5.17088C37.7051 4.14672 36.8609 3.30246 35.8367 3.30246H18.1647Z" fill="#DCBDA1"/>
<path id="Vector (Stroke)_2" fill-rule="evenodd" clip-rule="evenodd" d="M50.3093 23.5247C51.1543 23.5247 51.8393 24.2097 51.8393 25.0547V43.0635C51.8393 45.6484 49.7301 47.7575 47.1452 47.7575H6.85617C4.27136 47.7575 2.16211 45.6488 2.16211 43.0635V25.1602C2.16211 24.3152 2.84711 23.6302 3.69211 23.6302C4.5371 23.6302 5.22211 24.3152 5.22211 25.1602V43.0635C5.22211 43.9586 5.96115 44.6975 6.85617 44.6975H47.1452C48.0402 44.6975 48.7793 43.9584 48.7793 43.0635V25.0547C48.7793 24.2097 49.4643 23.5247 50.3093 23.5247Z" fill="#DCBDA1"/>
<path id="Vector (Stroke)_3" fill-rule="evenodd" clip-rule="evenodd" d="M4.7468 11.6872C3.84906 11.6872 3.11273 12.4236 3.11273 13.3213V20.8093C3.11273 22.655 4.74654 24.5284 8.5769 26.0931C12.2669 27.6005 17.3818 28.5396 22.8693 28.8534C23.7129 28.9016 24.3577 29.6246 24.3095 30.4682C24.2612 31.3118 23.5382 31.9566 22.6946 31.9084C17.0247 31.5842 11.5399 30.609 7.41971 28.9258C3.43982 27.3 0.0527344 24.7066 0.0527344 20.8093V13.3213C0.0527344 10.7337 2.159 8.62723 4.7468 8.62723H49.2546C51.8423 8.62723 53.9487 10.7338 53.9487 13.3213V20.8093C53.9487 24.7305 50.5209 27.3319 46.503 28.9577C42.3409 30.6418 36.8037 31.6104 31.0914 31.9203C30.2476 31.9661 29.5265 31.3192 29.4808 30.4754C29.435 29.6317 30.0819 28.9106 30.9256 28.8648C36.4548 28.5649 41.6227 27.6314 45.3553 26.1211C49.2321 24.5524 50.8887 22.667 50.8887 20.8093V13.3213C50.8887 12.4237 50.1522 11.6872 49.2546 11.6872H4.7468Z" fill="#DCBDA1"/>
<path id="Vector (Stroke)_4" fill-rule="evenodd" clip-rule="evenodd" d="M21.5684 27.2432C21.5684 26.3982 22.2534 25.7132 23.0984 25.7132H30.903C31.748 25.7132 32.433 26.3982 32.433 27.2432V30.8818C32.433 33.7281 30.1106 36.0505 27.2644 36.0505H26.737C23.8908 36.0505 21.5684 33.7281 21.5684 30.8818V27.2432ZM24.6284 28.7732V30.8818C24.6284 32.0381 25.5808 32.9905 26.737 32.9905H27.2644C28.4206 32.9905 29.373 32.0381 29.373 30.8818V28.7732H24.6284Z" fill="#DCBDA1"/>
</g>
</svg>
