<svg width="44" height="61" viewBox="0 0 44 61" fill="none" xmlns="http://www.w3.org/2000/svg">
<g id="Group 1">
<path id="Vector" d="M30.1785 41.869H28.1096V39.4172C32.1751 37.4828 35.2061 33.7069 36.1061 29.1759L37.4096 28.9586C38.5682 28.7724 39.613 28.1724 40.3889 27.2724C41.144 26.3724 41.5578 25.2345 41.5578 24.0759C41.5578 22.5034 40.813 21.1172 39.6647 20.2172C40.1923 19.6586 40.5234 18.9138 40.5234 18.0862C40.5234 16.6276 39.5096 15.4172 38.1647 15.0862C37.5647 11.8276 35.9716 8.76552 33.6027 6.39655C31.7303 4.51379 29.4337 3.11724 26.9199 2.32069C26.8682 1.9069 26.7027 1.52414 26.4234 1.20345C26.0303 0.758621 25.4613 0.5 24.8716 0.5H18.944C18.3544 0.5 17.7854 0.758621 17.3923 1.20345C17.113 1.51379 16.9475 1.9069 16.8958 2.32069C14.382 3.11724 12.0854 4.51379 10.213 6.39655C7.84405 8.76552 6.25094 11.8276 5.65094 15.0862C4.29577 15.4172 3.29232 16.6379 3.29232 18.0862C3.29232 18.9138 3.62336 19.6586 4.15094 20.2172C3.01301 21.1276 2.25784 22.5138 2.25784 24.0759C2.25784 25.2345 2.67163 26.3724 3.43715 27.2828C4.20267 28.1828 5.24749 28.7828 6.40612 28.969L7.71991 29.1862C8.61991 33.7172 11.6509 37.4931 15.7165 39.4276V41.8793H13.6475C6.23025 41.8793 0.199219 47.9103 0.199219 55.3276V59.4655C0.199219 60.0345 0.664736 60.5 1.2337 60.5H42.5923C43.1613 60.5 43.6268 60.0345 43.6268 59.4655V55.3276C43.6268 47.9103 37.5958 41.8793 30.1785 41.8793V41.869ZM38.8061 25.9276C38.3613 26.4552 37.7509 26.7966 37.0785 26.9103L36.3544 27.0345C36.3647 26.8069 36.3854 26.5793 36.3854 26.3517V21.1793H36.6027C38.1958 21.1793 39.4889 22.4724 39.4889 24.0655C39.4889 24.7483 39.2509 25.4 38.8061 25.9276ZM24.8716 2.55862L24.0958 8.76552H19.7199L18.944 2.55862H24.8716ZM11.6716 7.83448C13.2027 6.2931 15.0647 5.15517 17.0923 4.44138L17.6613 9.01379C17.7854 10.0483 18.6751 10.8241 19.7096 10.8241H24.0854C25.1303 10.8241 26.0096 10.0483 26.1337 9.01379L26.713 4.41034C28.7406 5.12414 30.5923 6.2931 32.1234 7.83448C34.0785 9.78965 35.444 12.2931 36.0337 14.9621H7.76129C8.35094 12.2931 9.70611 9.78965 11.6613 7.82414L11.6716 7.83448ZM6.38543 19.1103C5.81646 19.1103 5.35094 18.6448 5.35094 18.0759C5.35094 17.5069 5.81646 17.0414 6.38543 17.0414H37.4199C37.9889 17.0414 38.4544 17.5069 38.4544 18.0759C38.4544 18.6448 37.9889 19.1103 37.4199 19.1103H6.38543ZM6.7268 26.9103C6.05439 26.7966 5.44405 26.4552 5.00956 25.9379C4.55439 25.4 4.31646 24.7483 4.31646 24.0655C4.31646 22.4724 5.60956 21.1793 7.20267 21.1793H7.41991V26.3517C7.41991 26.5793 7.4406 26.8069 7.45094 27.0345L6.7268 26.9103ZM9.48887 26.3517V21.1793H34.3165V26.3517C34.3165 33.2 28.7509 38.7655 21.9027 38.7655C15.0544 38.7655 9.48887 33.2 9.48887 26.3517ZM21.9027 40.8345C23.3406 40.8345 24.7268 40.6172 26.0406 40.2241V42.9035C26.0406 44.6103 24.644 46.0069 22.9371 46.0069H20.8682C19.1613 46.0069 17.7647 44.6103 17.7647 42.9035V40.2241C19.0785 40.6172 20.4647 40.8345 21.9027 40.8345ZM15.7992 43.9379C16.2751 46.2966 18.3647 48.0759 20.8682 48.0759H22.9371C25.4303 48.0759 27.5199 46.2966 28.0061 43.9379H30.1785V50.1448H13.6268V43.9379H15.7992ZM2.24749 55.3172C2.24749 51.3345 4.30611 47.8276 7.41991 45.7897V58.4207H2.24749V55.3172ZM9.48887 44.9724V44.7241C10.1509 44.4655 10.844 44.2586 11.5578 44.1345V58.4207H9.48887V44.9724ZM13.6268 52.2138H30.1785V58.4207H13.6268V52.2138ZM32.2475 58.4207V44.1345C32.9613 44.269 33.6544 44.4655 34.3165 44.7241V58.4207H32.2475ZM41.5578 58.4207H36.3854V45.7897C39.4992 47.8276 41.5578 51.3345 41.5578 55.3172V58.4207Z" fill="#DCBDA1"/>
<path id="Vector_2" d="M25.9678 33.469C26.454 33.169 26.6092 32.538 26.3195 32.0518C26.0195 31.5656 25.3885 31.4104 24.9023 31.7C23.0195 32.838 20.8057 32.838 18.923 31.7C18.4368 31.4104 17.7954 31.5656 17.5057 32.0518C17.2057 32.538 17.3712 33.1794 17.8574 33.469C19.1299 34.2345 20.4954 34.6276 21.923 34.6276C23.3505 34.6276 24.7161 34.2345 25.9885 33.469H25.9678Z" fill="#DCBDA1"/>
</g>
</svg>
