<svg width="54" height="54" viewBox="0 0 54 54" fill="none" xmlns="http://www.w3.org/2000/svg">
<g id="g1362">
<g id="g1364">
<g id="Clip path group">
<mask id="mask0_1590_731" style="mask-type:luminance" maskUnits="userSpaceOnUse" x="0" y="0" width="54" height="54">
<g id="clipPath1370">
<path id="path1368" d="M0 10C0 4.47716 4.47715 3.8147e-06 10 3.8147e-06H44C49.5228 3.8147e-06 54 4.47716 54 10V44C54 49.5228 49.5228 54 44 54H10C4.47715 54 0 49.5228 0 44V10Z" fill="white"/>
</g>
</mask>
<g mask="url(#mask0_1590_731)">
<g id="g1366">
<g id="g1392">
<path id="Union" fill-rule="evenodd" clip-rule="evenodd" d="M26.9997 41.9244C20.0068 41.9244 14.3379 36.2556 14.3379 29.2627C14.3379 23.0851 17.3882 18.3904 20.3253 15.3031C21.799 13.754 23.2692 12.5816 24.372 11.7951C24.9245 11.401 25.3882 11.1015 25.7183 10.8979C25.8835 10.796 26.0156 10.718 26.109 10.664C26.1558 10.637 26.1929 10.616 26.2196 10.601L26.252 10.583L26.2622 10.5774L26.2672 10.5746L26.9997 10.17L27.7322 10.5746L27.7372 10.5774L27.7474 10.583L27.7797 10.601C27.8065 10.616 27.8436 10.637 27.8903 10.664C27.9838 10.718 28.1159 10.796 28.281 10.8979C28.6112 11.1015 29.0748 11.401 29.6274 11.7951C30.7302 12.5816 32.2004 13.754 33.6741 15.3031C36.6112 18.3904 39.6615 23.0851 39.6615 29.2627C39.6615 36.2556 33.9926 41.9244 26.9997 41.9244ZM25.4697 24.4565V30.4985L18.4818 25.0578C18.3497 24.9549 18.206 24.8771 18.0564 24.8237C18.5433 23.2178 19.266 21.7663 20.1074 20.4732L24.8525 24.1678C25.0403 24.314 25.2516 24.4096 25.4697 24.4565ZM25.4697 20.7701L21.9652 18.0415C22.1563 17.8252 22.349 17.6154 22.5423 17.4122C23.5693 16.3327 24.5985 15.4554 25.4697 14.7884V20.7701ZM25.4697 38.7432V34.1848C25.2516 34.1379 25.0404 34.0424 24.8526 33.8961L17.4399 28.1247C17.4122 28.4976 17.3979 28.8769 17.3979 29.2627C17.3979 34.0449 20.894 38.0105 25.4697 38.7432ZM31.4571 17.4122C30.4301 16.3326 29.4008 15.4554 28.5297 14.7884V20.7702L32.0342 18.0415C31.8431 17.8252 31.6504 17.6154 31.4571 17.4122ZM33.892 20.4732L29.1469 24.1678C28.9591 24.314 28.7478 24.4096 28.5297 24.4565V30.4986L35.5177 25.0578C35.6498 24.9549 35.7935 24.8771 35.943 24.8237C35.4561 23.2178 34.7334 21.7663 33.892 20.4732ZM28.5297 38.7432V34.1848C28.7478 34.1379 28.959 34.0424 29.1469 33.8961L36.5595 28.1247C36.5872 28.4976 36.6015 28.8769 36.6015 29.2627C36.6015 34.0449 33.1054 38.0105 28.5297 38.7432Z" fill="#DCBDA1"/>
</g>
<g id="g1396">
<path id="path1398 (Stroke)" fill-rule="evenodd" clip-rule="evenodd" d="M13.1075 14.6182C13.9462 14.7211 14.7095 14.1247 14.8125 13.286L15.3105 9.2299C15.6885 6.15109 13.4991 3.3488 10.4203 2.97077L6.36417 2.47274C5.52548 2.36976 4.7621 2.96617 4.65912 3.80487C4.55614 4.64357 5.15256 5.40695 5.99125 5.50993L8.52878 5.8215C10.7689 6.09655 12.3619 8.13548 12.0869 10.3756L11.7753 12.9131C11.6724 13.7518 12.2688 14.5152 13.1075 14.6182Z" fill="#DCBDA1"/>
</g>
<g id="g1400">
<path id="path1402 (Stroke)" fill-rule="evenodd" clip-rule="evenodd" d="M47.6347 51.5273C48.4734 51.6303 49.2367 51.0338 49.3397 50.1951C49.4427 49.3565 48.8463 48.5931 48.0076 48.4901L45.4701 48.1785C43.2299 47.9035 41.6369 45.8645 41.912 43.6244L42.2235 41.0869C42.3265 40.2482 41.7301 39.4848 40.8914 39.3819C40.0527 39.2789 39.2893 39.8753 39.1863 40.714L38.6883 44.7701C38.3103 47.8489 40.4997 50.6512 43.5785 51.0293L47.6347 51.5273Z" fill="#DCBDA1"/>
</g>
<g id="g1404">
<path id="path1406 (Stroke)" fill-rule="evenodd" clip-rule="evenodd" d="M0.969887 33.9746C4.68898 47.8545 18.5919 56.2861 32.4853 53.3845C33.3124 53.2117 33.7969 52.3681 33.5782 51.5519C33.3595 50.7357 32.52 50.2567 31.6916 50.4235C19.4329 52.8914 7.20716 45.4296 3.92562 33.1826C1.204 23.0252 5.45663 12.6387 13.7513 7.11421C14.4546 6.6458 14.7096 5.714 14.2876 4.98194C13.8655 4.24989 12.9266 3.99525 12.2199 4.45847C2.75579 10.6618 -2.11933 22.4453 0.969887 33.9746Z" fill="#DCBDA1"/>
</g>
<g id="g1408">
<path id="path1410 (Stroke)" fill-rule="evenodd" clip-rule="evenodd" d="M39.712 49.0181C40.1341 49.7501 41.073 50.0048 41.7797 49.5416C51.2438 43.3382 56.1189 31.5547 53.0297 20.0254C49.3106 6.1455 35.4077 -2.28606 21.5143 0.615532C20.6872 0.78828 20.2027 1.63195 20.4214 2.44815C20.6401 3.26435 21.4796 3.74329 22.308 3.57652C34.5667 1.10863 46.7924 8.57044 50.074 20.8174C52.7956 30.9748 48.543 41.3613 40.2483 46.8858C39.5451 47.3542 39.29 48.286 39.712 49.0181Z" fill="#DCBDA1"/>
</g>
</g>
</g>
</g>
</g>
</g>
</svg>
