<svg width="52" height="52" viewBox="0 0 52 52" fill="none" xmlns="http://www.w3.org/2000/svg">
<g id="Group">
<path id="Vector" d="M51.2008 31.9294C51.2008 31.1107 50.5371 30.4471 49.7184 30.4471C48.8997 30.4471 48.2361 29.7834 48.2361 28.9647V5.24707C48.2361 2.79102 46.2451 0.800003 43.789 0.800003H40.8243C40.0056 0.800003 39.342 1.46368 39.342 2.28236C39.342 3.10104 38.6783 3.76471 37.8596 3.76471H34.8949C34.0762 3.76471 33.4125 3.10104 33.4125 2.28236C33.4125 1.46368 32.7489 0.800003 31.9302 0.800003H20.0714C19.2527 0.800003 18.589 1.46368 18.589 2.28236C18.589 3.10104 17.9253 3.76471 17.1067 3.76471H14.142C13.3233 3.76471 12.6596 3.10104 12.6596 2.28236C12.6596 1.46368 11.9959 0.800003 11.1773 0.800003H8.21255C5.7565 0.800003 3.76549 2.79102 3.76549 5.24706V28.9647C3.76549 29.7834 3.10182 30.4471 2.28313 30.4471C1.46445 30.4471 0.800781 31.1107 0.800781 31.9294V43.0471C0.800781 44.2751 1.79629 45.2706 3.02431 45.2706C4.25233 45.2706 5.24784 46.2661 5.24784 47.4941V48.2353C5.24784 49.8727 6.57518 51.2 8.21255 51.2H13.2258C15.2572 51.2 17.1143 50.0523 18.0228 48.2353C18.9312 46.4183 20.7883 45.2706 22.8198 45.2706H30.6641C32.6955 45.2706 34.5526 46.4183 35.4611 48.2353C36.3695 50.0523 38.2266 51.2 40.2581 51.2H45.2714C46.9087 51.2 48.2361 49.8727 48.2361 48.2353V46.7529C48.2361 45.9343 48.8997 45.2706 49.7184 45.2706C50.5371 45.2706 51.2008 44.6069 51.2008 43.7882V31.9294ZM42.3067 5.24706C42.3067 4.42838 42.9703 3.76471 43.789 3.76471C44.6077 3.76471 45.2714 4.42838 45.2714 5.24706V28.9647C45.2714 29.7834 44.6077 30.4471 43.789 30.4471C42.9703 30.4471 42.3067 29.7834 42.3067 28.9647V5.24706ZM21.5537 5.98824C21.5537 4.76022 22.5492 3.76471 23.7773 3.76471H28.2243C29.4523 3.76471 30.4478 4.76022 30.4478 5.98824C30.4478 7.21626 29.4523 8.21177 28.2243 8.21177H23.7773C22.5492 8.21177 21.5537 7.21626 21.5537 5.98824ZM26.0008 14.1412C25.1821 14.1412 24.5184 13.4775 24.5184 12.6588C24.5184 11.8401 25.1821 11.1765 26.0008 11.1765C26.8195 11.1765 27.4831 11.8401 27.4831 12.6588C27.4831 13.4775 26.8195 14.1412 26.0008 14.1412ZM16.3655 6.72941C17.5935 6.72941 18.589 7.72492 18.589 8.95294V9.69412C18.589 10.5128 19.2527 11.1765 20.0714 11.1765C20.8901 11.1765 21.5537 11.8401 21.5537 12.6588V15.6235C21.5537 16.4422 22.2174 17.1059 23.0361 17.1059C23.8548 17.1059 24.5184 17.7696 24.5184 18.5882V20.0706C24.5184 20.8893 25.1821 21.5529 26.0008 21.5529C26.8195 21.5529 27.4831 20.8893 27.4831 20.0706V18.5882C27.4831 17.7696 28.1468 17.1059 28.9655 17.1059C29.7842 17.1059 30.4478 16.4422 30.4478 15.6235V12.6588C30.4478 11.8401 31.1115 11.1765 31.9302 11.1765C32.7489 11.1765 33.4125 10.5128 33.4125 9.69412V8.95294C33.4125 7.72492 34.4081 6.72941 35.6361 6.72941H36.3773C38.0146 6.72941 39.342 8.05676 39.342 9.69412V28.9647C39.342 29.7834 38.6783 30.4471 37.8596 30.4471C37.0409 30.4471 36.3773 29.7834 36.3773 28.9647V27.4824C36.3773 25.845 35.0499 24.5177 33.4125 24.5177H18.589C16.9517 24.5177 15.6243 25.845 15.6243 27.4824V28.9647C15.6243 29.7834 14.9606 30.4471 14.142 30.4471C13.3233 30.4471 12.6596 29.7834 12.6596 28.9647V9.69412C12.6596 8.05676 13.9869 6.72941 15.6243 6.72941H16.3655ZM33.4125 28.9647C33.4125 29.7834 32.7489 30.4471 31.9302 30.4471H20.0714C19.2527 30.4471 18.589 29.7834 18.589 28.9647C18.589 28.146 19.2527 27.4824 20.0714 27.4824H31.9302C32.7489 27.4824 33.4125 28.146 33.4125 28.9647ZM6.73019 5.24706C6.73019 4.42838 7.39387 3.76471 8.21255 3.76471C9.03123 3.76471 9.6949 4.42838 9.6949 5.24706V28.9647C9.6949 29.7834 9.03123 30.4471 8.21255 30.4471C7.39387 30.4471 6.73019 29.7834 6.73019 28.9647V5.24706ZM15.1179 47.4159C14.8668 47.9181 14.3535 48.2353 13.7921 48.2353H9.6949C8.87622 48.2353 8.21255 47.5716 8.21255 46.7529C8.21255 45.9343 8.87622 45.2706 9.6949 45.2706H13.7921C14.894 45.2706 15.6107 46.4303 15.1179 47.4159ZM45.2714 46.7529C45.2714 47.5716 44.6077 48.2353 43.789 48.2353H39.6919C39.1305 48.2353 38.6172 47.9181 38.3661 47.4159C37.8733 46.4303 38.59 45.2706 39.6919 45.2706H43.789C44.6077 45.2706 45.2714 45.9343 45.2714 46.7529ZM48.2361 37.8588C48.2361 40.3149 46.2536 42.3059 43.7975 42.3059C35.2492 42.3059 16.7566 42.3059 8.20098 42.3059C5.74494 42.3059 3.76549 40.3149 3.76549 37.8588C3.76549 35.4028 5.7565 33.4118 8.21255 33.4118H43.789C46.2451 33.4118 48.2361 35.4028 48.2361 37.8588Z" fill="#DCBDA1"/>
<path id="Vector_2" d="M6.73047 37.8588C6.73047 37.0401 7.39414 36.3765 8.21282 36.3765C9.0315 36.3765 9.69518 37.0401 9.69518 37.8588C9.69518 38.6775 9.0315 39.3412 8.21282 39.3412C7.39414 39.3412 6.73047 38.6775 6.73047 37.8588Z" fill="#DCBDA1"/>
<path id="Vector_3" d="M12.6602 37.8588C12.6602 37.0401 13.3238 36.3765 14.1425 36.3765C14.9612 36.3765 15.6249 37.0401 15.6249 37.8588C15.6249 38.6775 14.9612 39.3412 14.1425 39.3412C13.3238 39.3412 12.6602 38.6775 12.6602 37.8588Z" fill="#DCBDA1"/>
<path id="Vector_4" d="M18.5898 37.8588C18.5898 37.0401 19.2535 36.3765 20.0722 36.3765C20.8909 36.3765 21.5546 37.0401 21.5546 37.8588C21.5546 38.6775 20.8909 39.3412 20.0722 39.3412C19.2535 39.3412 18.5898 38.6775 18.5898 37.8588Z" fill="#DCBDA1"/>
</g>
</svg>
