<svg width="34" height="34" viewBox="0 0 34 34" fill="none" xmlns="http://www.w3.org/2000/svg">
<rect width="34" height="34" rx="17" fill="#DCBDA1"/>
<g clip-path="url(#clip0_1152_1877)">
<path d="M23.6199 20.2746L21.6661 18.3208C20.9684 17.6231 19.7822 17.9022 19.5031 18.8093C19.2937 19.4373 18.596 19.7862 17.968 19.6466C16.5725 19.2977 14.6885 17.4835 14.3396 16.0182C14.1303 15.3902 14.5489 14.6924 15.1769 14.4831C16.084 14.204 16.3631 13.0178 15.6654 12.3201L13.7116 10.3663C13.1534 9.87789 12.3161 9.87789 11.8277 10.3663L10.5019 11.6921C9.17615 13.0876 10.6415 16.7858 13.921 20.0653C17.2004 23.3448 20.8986 24.8799 22.2941 23.4843L23.6199 22.1586C24.1083 21.6003 24.1083 20.763 23.6199 20.2746Z" fill="white"/>
</g>
<defs>
<clipPath id="clip0_1152_1877">
<rect width="14" height="14" fill="white" transform="translate(10 10)"/>
</clipPath>
</defs>
</svg>
