<svg width="34" height="34" viewBox="0 0 34 34" fill="none" xmlns="http://www.w3.org/2000/svg">
<rect width="34" height="34" rx="17" fill="#DCBDA1"/>
<g clip-path="url(#clip0_702_3061)">
<path d="M17 10C14.1055 10 11.75 12.3718 11.75 15.2879C11.75 19.4313 16.5065 23.7095 16.7089 23.8892C16.7923 23.9632 16.8962 24 17 24C17.1038 24 17.2077 23.9633 17.2911 23.8898C17.4935 23.7095 22.25 19.4313 22.25 15.2879C22.25 12.3718 19.8945 10 17 10ZM17 18.1667C15.3917 18.1667 14.0833 16.8582 14.0833 15.25C14.0833 13.6417 15.3917 12.3333 17 12.3333C18.6082 12.3333 19.9167 13.6417 19.9167 15.25C19.9167 16.8582 18.6082 18.1667 17 18.1667Z" fill="white"/>
</g>
<defs>
<clipPath id="clip0_702_3061">
<rect width="14" height="14" fill="white" transform="translate(10 10)"/>
</clipPath>
</defs>
</svg>
