<svg width="200" height="13" viewBox="0 0 200 13" fill="none" xmlns="http://www.w3.org/2000/svg">
<g id="Frame" clip-path="url(#clip0_1132_38038)">
<g id="Group">
<g id="Group_2">
<path id="Vector" d="M69.4446 8.21203C63.6566 8.1434 57.8686 7.96039 52.0806 7.90319C50.6307 7.90319 49.1923 7.89175 47.7425 7.91463C47.0232 7.92607 46.2926 7.91463 45.5734 7.94895C44.8542 7.98326 44.1235 8.18915 43.4043 8.36073C42.6737 8.54374 41.9544 8.61237 41.2352 8.58949C40.516 8.58949 39.7854 8.58949 39.0662 8.55518C37.6163 8.52086 36.1779 8.41792 34.728 8.31497C31.8397 8.07477 28.94 8.00614 26.0517 7.93751L17.3754 7.72018C11.576 7.6058 5.788 7.50285 0 7.44566L0.0114162 6.7708C5.79942 6.81655 11.5874 6.81655 17.3754 6.79367L26.0517 6.72504C28.94 6.7136 31.8397 6.69073 34.7394 6.49628C36.1893 6.41621 37.6391 6.34758 39.0776 6.33614C39.7968 6.3247 40.5274 6.33614 41.2466 6.33614C41.9659 6.3247 42.6965 6.41621 43.4157 6.59922C44.1349 6.78223 44.8542 6.99956 45.5848 7.04532C46.304 7.09107 47.0346 7.09107 47.7539 7.11395C49.2037 7.1597 50.6422 7.17114 52.092 7.19402C57.88 7.23977 63.668 7.14826 69.456 7.18258L69.4446 8.21203Z" fill="#DCBDA1"/>
</g>
<g id="Group_3">
<path id="Vector_2" d="M130.543 6.75906C136.331 6.72474 142.119 6.80481 147.907 6.7705C149.357 6.74762 150.795 6.73618 152.245 6.69043C152.964 6.66755 153.695 6.66755 154.414 6.6218C155.133 6.57605 155.864 6.35872 156.583 6.1757C157.302 5.98125 158.033 5.90118 158.752 5.91262C159.472 5.90118 160.202 5.88975 160.921 5.91262C162.371 5.92406 163.821 6.00413 165.26 6.07276C168.159 6.25577 171.048 6.29009 173.947 6.30153L182.624 6.37016C188.412 6.39303 194.2 6.39303 199.988 6.34728L199.999 7.02214C194.211 7.07933 188.423 7.17084 182.635 7.29666L173.959 7.51399C171.07 7.57118 168.171 7.65125 165.282 7.89146C163.833 7.9944 162.394 8.09735 160.944 8.13166C160.225 8.16598 159.494 8.16598 158.775 8.16598C158.056 8.18885 157.325 8.12022 156.606 7.93721C155.887 7.76564 155.156 7.57118 154.437 7.52543C153.718 7.49111 152.987 7.50255 152.268 7.49111C150.818 7.46824 149.38 7.47968 147.93 7.47968C142.142 7.53687 136.354 7.71988 130.566 7.78851L130.543 6.75906Z" fill="#DCBDA1"/>
</g>
<g id="Group_4">
<g id="Group_5">
<path id="Vector_3" d="M94.5391 7.27367C96.183 9.26394 98.6146 10.5794 101.183 11.0483C102.473 11.2885 103.809 11.3114 105.122 11.1055C106.435 10.9111 107.713 10.4307 108.866 9.79011C110.019 9.161 111.07 8.39463 112.109 7.68545C113.147 6.97627 114.198 6.32428 115.305 5.7638C116.412 5.20332 117.543 4.72291 118.719 4.35689C119.894 4.0023 121.093 3.75065 122.303 3.68202C123.513 3.59052 124.723 3.64771 125.831 3.99086C126.379 4.16243 126.915 4.40264 127.372 4.71148C127.84 5.02031 128.251 5.42065 128.571 5.86675C129.233 6.75894 129.518 7.89134 129.187 8.92079C128.879 9.95024 128.034 10.8539 127.018 11.1856C126.504 11.3457 125.945 11.38 125.465 11.2313C124.986 11.0826 124.575 10.7395 124.301 10.282C124.027 9.82442 123.913 9.27538 124.027 8.77209C124.13 8.25737 124.449 7.77695 124.872 7.4338C125.306 7.09065 125.854 6.8962 126.402 6.95339C126.95 6.98771 127.475 7.28511 127.703 7.75408C127.817 7.99428 127.863 8.2688 127.817 8.54332C127.772 8.80641 127.635 9.05805 127.418 9.19531C126.995 9.49271 126.219 9.36689 126.013 8.82928L125.808 8.89791C125.911 9.2525 126.219 9.50415 126.55 9.60709C126.893 9.71004 127.269 9.6986 127.612 9.51558C127.943 9.32113 128.171 8.98942 128.251 8.63483C128.342 8.28024 128.308 7.89134 128.183 7.54819C128.046 7.1936 127.783 6.8962 127.486 6.69031C127.178 6.48442 126.835 6.3586 126.47 6.30141C125.751 6.18702 124.997 6.40435 124.404 6.80469C123.81 7.21648 123.365 7.84558 123.171 8.5662C122.977 9.29826 123.114 10.0875 123.456 10.7395C123.799 11.4029 124.392 11.9405 125.123 12.2036C125.842 12.4552 126.619 12.4324 127.315 12.2379C128.023 12.0435 128.662 11.6431 129.187 11.1284C129.438 10.8653 129.667 10.5794 129.861 10.2705C130.055 9.96168 130.203 9.62997 130.317 9.27538C130.546 8.57764 130.603 7.79983 130.454 7.07921C130.386 6.71319 130.272 6.37004 130.123 6.03832C129.975 5.70661 129.804 5.38634 129.598 5.10038C129.187 4.51702 128.673 4.01374 128.08 3.61339C127.486 3.21305 126.847 2.91565 126.185 2.70976C124.86 2.29798 123.49 2.21791 122.166 2.32086C119.518 2.51531 116.972 3.39606 114.677 4.60853C113.524 5.21476 112.428 5.92394 111.378 6.67887C110.328 7.42237 109.334 8.18874 108.284 8.81784C107.234 9.45839 106.115 9.89305 104.916 10.1447C103.729 10.3849 102.485 10.4192 101.263 10.2591C98.8201 9.95024 96.4456 8.87504 94.6532 7.09065L94.5391 7.27367Z" fill="#DCBDA1"/>
<path id="Vector_4" d="M105.075 7.27367C103.431 9.26394 101 10.5794 98.431 11.0483C97.1409 11.2885 95.8053 11.3114 94.4924 11.1055C93.1795 10.9111 91.9009 10.4307 90.7479 9.79011C89.5949 9.161 88.5446 8.39463 87.5057 7.68545C86.4668 6.97627 85.4165 6.32428 84.3092 5.7638C83.2018 5.20332 82.0716 4.72291 80.8957 4.35689C79.7199 4.0023 78.5212 3.75065 77.3111 3.68202C76.1009 3.59052 74.8908 3.64771 73.7834 3.99086C73.2355 4.16243 72.6989 4.40264 72.2423 4.71148C71.7742 5.02031 71.3632 5.42065 71.0436 5.86675C70.3814 6.75894 70.096 7.89134 70.4271 8.92079C70.7353 9.95024 71.5801 10.8539 72.5962 11.1856C73.1099 11.3457 73.6693 11.38 74.1488 11.2313C74.6282 11.0826 75.0392 10.7395 75.3132 10.282C75.5872 9.82442 75.7014 9.27538 75.5872 8.77209C75.4845 8.25737 75.1648 7.77695 74.7424 7.4338C74.3086 7.09065 73.7606 6.8962 73.2126 6.95339C72.6647 6.98771 72.1395 7.28511 71.9112 7.75408C71.797 7.99428 71.7514 8.2688 71.797 8.54332C71.8427 8.80641 71.9797 9.05805 72.1966 9.19531C72.619 9.49271 73.3953 9.36689 73.6008 8.82928L73.7949 8.89791C73.6921 9.2525 73.3839 9.50415 73.0528 9.60709C72.7103 9.71004 72.3336 9.6986 71.9911 9.51558C71.66 9.32113 71.4317 8.98942 71.3518 8.63483C71.2605 8.28024 71.2947 7.89134 71.4203 7.54819C71.5573 7.1936 71.8199 6.8962 72.1167 6.69031C72.4249 6.48442 72.7674 6.3586 73.1327 6.30141C73.8519 6.18702 74.6054 6.40435 75.1991 6.80469C75.7927 7.21648 76.2379 7.84558 76.432 8.5662C76.6261 9.29826 76.4891 10.0875 76.1466 10.7395C75.8041 11.4029 75.2105 11.9405 74.4798 12.2036C73.7606 12.4552 72.9843 12.4324 72.2879 12.2379C71.5801 12.0435 70.9408 11.6431 70.4157 11.1284C70.1645 10.8653 69.9362 10.5794 69.7421 10.2705C69.5481 9.96168 69.3996 9.62997 69.2855 9.27538C69.0572 8.57764 69.0001 7.79983 69.1485 7.07921C69.217 6.71319 69.3311 6.37004 69.4795 6.03832C69.628 5.70661 69.7992 5.38634 70.0047 5.10038C70.4157 4.51702 70.9294 4.01374 71.523 3.61339C72.1167 3.21305 72.756 2.91565 73.4181 2.70976C74.7424 2.29798 76.1123 2.21791 77.4366 2.32086C80.0852 2.51531 82.631 3.39606 84.9256 4.60853C86.0787 5.21476 87.1746 5.92394 88.2249 6.67887C89.2752 7.42237 90.2684 8.18874 91.3187 8.81784C92.369 9.45839 93.4878 9.89305 94.6865 10.1447C95.8738 10.3849 97.1181 10.4192 98.3396 10.2591C100.783 9.95024 103.157 8.87504 104.95 7.09065L105.075 7.27367Z" fill="#DCBDA1"/>
</g>
<path id="Vector_5" d="M103.442 4.63144C103.397 5.63802 103.066 6.63315 102.426 7.39952C101.81 8.16589 100.874 8.72637 99.8576 8.71493C98.853 8.73781 97.894 8.18877 97.2889 7.39952C96.661 6.62171 96.33 5.62658 96.2843 4.62C96.2501 3.61343 96.5012 2.57254 97.1177 1.71466C97.7113 0.868222 98.7274 0.204798 99.8576 0.193359C100.417 0.193359 100.965 0.353496 101.444 0.616578C101.924 0.891099 102.312 1.28 102.609 1.70322C103.225 2.58398 103.477 3.62487 103.442 4.63144ZM102.803 4.63144C102.757 3.75069 102.46 2.89281 101.924 2.24082C101.399 1.60028 100.645 1.17706 99.869 1.17706C99.0927 1.15418 98.3164 1.5774 97.8027 2.22939C97.2775 2.88137 96.9693 3.73925 96.9236 4.62C96.8894 5.50076 97.1063 6.40439 97.62 7.14788C98.1337 7.8685 98.9557 8.39466 99.8576 8.41754C100.303 8.41754 100.748 8.29171 101.136 8.07439C101.524 7.84562 101.844 7.52534 102.107 7.15932C102.62 6.42726 102.837 5.51219 102.803 4.63144Z" fill="#DCBDA1"/>
</g>
</g>
</g>
<defs>
<clipPath id="clip0_1132_38038">
<rect width="200" height="12.5714" fill="white"/>
</clipPath>
</defs>
</svg>
