<svg width="60" height="60" viewBox="0 0 60 60" fill="none" xmlns="http://www.w3.org/2000/svg">
<g id="g474">
<g id="g476">
<g id="Clip path group">
<mask id="mask0_1590_605" style="mask-type:luminance" maskUnits="userSpaceOnUse" x="0" y="0" width="60" height="60">
<g id="clipPath482">
<path id="path480" d="M0 1.14441e-05H60V60H0V1.14441e-05Z" fill="white"/>
</g>
</mask>
<g mask="url(#mask0_1590_605)">
<g id="g478">
<g id="g484">
<path id="path486 (Stroke)" fill-rule="evenodd" clip-rule="evenodd" d="M0.257812 59.7422H59.7435V44.6719H29.6951L26.4123 47.5517L14.665 34.1973L6.10225 38.0969L4.29338 44.6719H0.257812V59.7422ZM3.25781 56.7422V47.6719H6.57951L8.62259 40.2455L13.8826 37.85L26.1385 51.7826L30.8245 47.6719H56.7435V56.7422H3.25781Z" fill="#DCBDA1"/>
</g>
<g id="g488">
<path id="path490 (Stroke)" fill-rule="evenodd" clip-rule="evenodd" d="M43.8042 25.0505L59.7179 7.37411L52.733 0.389421L35.0566 16.3031L37.0639 18.5326L52.6247 4.52364L55.5836 7.48254L41.5746 23.0433L43.8042 25.0505Z" fill="#DCBDA1"/>
</g>
</g>
</g>
</g>
</g>
<g id="g492">
<path id="path494 (Stroke)" fill-rule="evenodd" clip-rule="evenodd" d="M46.4676 25.7042L34.4026 13.6392L32.2812 15.7605L44.3463 27.8256L46.4676 25.7042Z" fill="#DCBDA1"/>
</g>
<g id="g496">
<path id="path498 (Stroke)" fill-rule="evenodd" clip-rule="evenodd" d="M46.3848 8.22934L51.8786 13.7232L54 11.6019L48.5061 6.10802L46.3848 8.22934Z" fill="#DCBDA1"/>
</g>
<g id="g500">
<path id="path502 (Stroke)" fill-rule="evenodd" clip-rule="evenodd" d="M35.3967 26.8329L40.4366 21.7931L38.3153 19.6717L33.2754 24.7116L35.3967 26.8329Z" fill="#DCBDA1"/>
</g>
<g id="g504">
<path id="path506 (Stroke)" fill-rule="evenodd" clip-rule="evenodd" d="M22.9329 45.6246L38.8972 28.2132L31.8939 21.21L14.9043 36.7877L16.9317 38.9989L31.804 25.3626L34.7445 28.3032L20.7217 43.5972L22.9329 45.6246Z" fill="#DCBDA1"/>
</g>
<g id="g508">
<g id="Clip path group_2">
<mask id="mask1_1590_605" style="mask-type:luminance" maskUnits="userSpaceOnUse" x="0" y="0" width="60" height="60">
<g id="clipPath514">
<path id="path512" d="M0 1.14441e-05H60V60H0V1.14441e-05Z" fill="white"/>
</g>
</mask>
<g mask="url(#mask1_1590_605)">
<g id="g510">
<g id="g516">
<path id="path518 (Stroke)" fill-rule="evenodd" clip-rule="evenodd" d="M44.2485 33.1737C44.2485 36.247 41.757 38.7385 38.6836 38.7385V41.7385C43.4137 41.7385 47.2485 37.9039 47.2485 33.1737H44.2485Z" fill="#DCBDA1"/>
</g>
<g id="g520">
<path id="path522 (Stroke)" fill-rule="evenodd" clip-rule="evenodd" d="M31.2612 5.2426C27.3685 5.2426 24.2129 8.39833 24.2129 12.291H27.2129C27.2129 10.0551 29.0254 8.2426 31.2612 8.2426V5.2426Z" fill="#DCBDA1"/>
</g>
<g id="g524">
<path id="path526 (Stroke)" fill-rule="evenodd" clip-rule="evenodd" d="M20.6998 21.3391C21.311 18.5127 20.668 15.6117 19.2259 13.2163C16.7822 9.15697 11.8709 7.95043 7.92645 10.2452L7.92644 10.2452C3.97719 12.5429 2.63837 17.6069 4.93606 21.5561C6.21176 23.7489 9.02347 24.4922 11.2162 23.2166L10.4619 21.92L11.2162 23.2166C13.4091 21.9409 14.1525 19.129 12.8766 16.9362L10.2836 18.445C10.7262 19.2056 10.4683 20.1809 9.70764 20.6234L9.7076 20.6235C8.94696 21.066 7.97165 20.8081 7.52915 20.0475L7.52913 20.0475C6.06465 17.5303 6.91794 14.3028 9.43508 12.8383C11.9569 11.3712 15.0541 12.1031 16.6557 14.7636L16.6557 14.7636C17.7612 16.5998 18.1952 18.7274 17.7676 20.7051C17.3474 22.6485 16.064 24.597 13.4429 26.0743L14.916 28.6878C18.2103 26.831 20.0813 24.1998 20.6998 21.3391ZM10.4619 21.92L10.4605 21.9176L10.4619 21.92Z" fill="#DCBDA1"/>
</g>
</g>
</g>
</g>
</g>
</g>
</svg>
