<svg width="38" height="39" viewBox="0 0 38 39" fill="none" xmlns="http://www.w3.org/2000/svg">
<g id="Group">
<path id="Vector" d="M37.6673 23.8918C37.6673 23.2854 37.1757 22.7938 36.5693 22.7938C35.9628 22.7938 35.4712 22.3022 35.4712 21.6958V4.12712C35.4712 2.30783 33.9964 0.833008 32.1771 0.833008H29.981C29.3746 0.833008 28.883 1.32462 28.883 1.93105C28.883 2.53748 28.3914 3.02909 27.785 3.02909H25.5889C24.9825 3.02909 24.4908 2.53748 24.4908 1.93105C24.4908 1.32462 23.9992 0.833008 23.3928 0.833008H14.6085C14.0021 0.833008 13.5105 1.32462 13.5105 1.93105C13.5105 2.53748 13.0188 3.02909 12.4124 3.02909H10.2163C9.60991 3.02909 9.1183 2.53748 9.1183 1.93105C9.1183 1.32462 8.62669 0.833008 8.02026 0.833008H5.82418C4.00489 0.833008 2.53006 2.30783 2.53006 4.12713V21.6958C2.53006 22.3022 2.03845 22.7938 1.43202 22.7938C0.825593 22.7938 0.333984 23.2854 0.333984 23.8918V32.1271C0.333984 33.0368 1.0714 33.7742 1.98104 33.7742C2.89069 33.7742 3.6281 34.5116 3.6281 35.4212V35.9703C3.6281 37.1831 4.61132 38.1663 5.82418 38.1663H9.53768C11.0424 38.1663 12.4181 37.3162 13.091 35.9703C13.764 34.6244 15.1396 33.7742 16.6443 33.7742H22.4549C23.9597 33.7742 25.3353 34.6244 26.0083 35.9703C26.6812 37.3162 28.0568 38.1663 29.5616 38.1663H33.2752C34.488 38.1663 35.4712 37.1831 35.4712 35.9703V34.8722C35.4712 34.2658 35.9628 33.7742 36.5693 33.7742C37.1757 33.7742 37.6673 33.2826 37.6673 32.6761V23.8918ZM31.0791 4.12713C31.0791 3.5207 31.5707 3.02909 32.1771 3.02909C32.7836 3.02909 33.2752 3.5207 33.2752 4.12713V21.6958C33.2752 22.3022 32.7836 22.7938 32.1771 22.7938C31.5707 22.7938 31.0791 22.3022 31.0791 21.6958V4.12713ZM15.7065 4.67615C15.7065 3.7665 16.4439 3.02909 17.3536 3.02909H20.6477C21.5574 3.02909 22.2948 3.7665 22.2948 4.67615C22.2948 5.58579 21.5574 6.3232 20.6477 6.3232H17.3536C16.4439 6.3232 15.7065 5.58579 15.7065 4.67615ZM19.0007 10.7154C18.3942 10.7154 17.9026 10.2238 17.9026 9.61732C17.9026 9.01089 18.3942 8.51928 19.0007 8.51928C19.6071 8.51928 20.0987 9.01089 20.0987 9.61732C20.0987 10.2238 19.6071 10.7154 19.0007 10.7154ZM11.8634 5.22516C12.773 5.22516 13.5105 5.96258 13.5105 6.87222V7.42124C13.5105 8.02767 14.0021 8.51928 14.6085 8.51928C15.2149 8.51928 15.7065 9.01089 15.7065 9.61732V11.8134C15.7065 12.4198 16.1981 12.9114 16.8046 12.9114C17.411 12.9114 17.9026 13.403 17.9026 14.0095V15.1075C17.9026 15.7139 18.3942 16.2056 19.0007 16.2056C19.6071 16.2056 20.0987 15.7139 20.0987 15.1075V14.0095C20.0987 13.403 20.5903 12.9114 21.1967 12.9114C21.8032 12.9114 22.2948 12.4198 22.2948 11.8134V9.61732C22.2948 9.01089 22.7864 8.51928 23.3928 8.51928C23.9992 8.51928 24.4908 8.02767 24.4908 7.42124V6.87222C24.4908 5.96258 25.2283 5.22516 26.1379 5.22516H26.6869C27.8998 5.22516 28.883 6.20838 28.883 7.42124V21.6958C28.883 22.3022 28.3914 22.7938 27.785 22.7938C27.1785 22.7938 26.6869 22.3022 26.6869 21.6958V20.5977C26.6869 19.3849 25.7037 18.4016 24.4908 18.4016H13.5105C12.2976 18.4016 11.3144 19.3849 11.3144 20.5977V21.6958C11.3144 22.3022 10.8228 22.7938 10.2163 22.7938C9.60991 22.7938 9.1183 22.3022 9.1183 21.6958V7.42125C9.1183 6.20838 10.1015 5.22516 11.3144 5.22516H11.8634ZM24.4908 21.6958C24.4908 22.3022 23.9992 22.7938 23.3928 22.7938H14.6085C14.0021 22.7938 13.5105 22.3022 13.5105 21.6958C13.5105 21.0893 14.0021 20.5977 14.6085 20.5977H23.3928C23.9992 20.5977 24.4908 21.0893 24.4908 21.6958ZM4.72614 4.12713C4.72614 3.5207 5.21775 3.02909 5.82418 3.02909C6.43061 3.02909 6.92222 3.5207 6.92222 4.12713V21.6958C6.92222 22.3022 6.43061 22.7938 5.82418 22.7938C5.21775 22.7938 4.72614 22.3022 4.72614 21.6958V4.12713ZM10.9393 35.3633C10.7533 35.7353 10.3731 35.9703 9.95716 35.9703H6.92222C6.31579 35.9703 5.82418 35.4787 5.82418 34.8722C5.82418 34.2658 6.31579 33.7742 6.92222 33.7742H9.95716C10.7734 33.7742 11.3043 34.6332 10.9393 35.3633ZM33.2752 34.8722C33.2752 35.4787 32.7836 35.9703 32.1771 35.9703H29.1423C28.7263 35.9703 28.3461 35.7353 28.1601 35.3633C27.7951 34.6332 28.326 33.7742 29.1423 33.7742H32.1771C32.7836 33.7742 33.2752 34.2658 33.2752 34.8722ZM35.4712 28.284C35.4712 30.1033 34.0027 31.5781 32.1834 31.5781C25.8513 31.5781 12.1531 31.5781 5.81562 31.5781C3.99633 31.5781 2.53006 30.1033 2.53006 28.284C2.53006 26.4647 4.00489 24.9899 5.82418 24.9899H32.1771C33.9964 24.9899 35.4712 26.4647 35.4712 28.284Z" fill="#DCBDA1"/>
<path id="Vector_2" d="M4.72656 28.2836C4.72656 27.6772 5.21817 27.1855 5.8246 27.1855C6.43103 27.1855 6.92264 27.6772 6.92264 28.2836C6.92264 28.89 6.43103 29.3816 5.8246 29.3816C5.21817 29.3816 4.72656 28.89 4.72656 28.2836Z" fill="#DCBDA1"/>
<path id="Vector_3" d="M9.11914 28.2836C9.11914 27.6772 9.61075 27.1855 10.2172 27.1855C10.8236 27.1855 11.3152 27.6772 11.3152 28.2836C11.3152 28.89 10.8236 29.3816 10.2172 29.3816C9.61075 29.3816 9.11914 28.89 9.11914 28.2836Z" fill="#DCBDA1"/>
<path id="Vector_4" d="M13.5098 28.2836C13.5098 27.6772 14.0014 27.1855 14.6078 27.1855C15.2142 27.1855 15.7058 27.6772 15.7058 28.2836C15.7058 28.89 15.2142 29.3816 14.6078 29.3816C14.0014 29.3816 13.5098 28.89 13.5098 28.2836Z" fill="#DCBDA1"/>
</g>
</svg>
