<svg width="42" height="54" viewBox="0 0 42 54" fill="none" xmlns="http://www.w3.org/2000/svg">
<g id="an">
<g id="ao">
<g id="Group">
<path id="Vector" d="M41.4358 47.0534L35.4919 35.0992L36.789 34.4746C37.2517 34.2517 37.5877 33.8304 37.702 33.3297L38.5945 29.4197L41.0951 26.2841C41.4153 25.8826 41.5352 25.3571 41.4209 24.8565L40.5285 20.9465L41.4209 17.0365C41.5351 16.5357 41.4153 16.0104 41.0951 15.6087L38.5945 12.4733L37.702 8.56322C37.5878 8.06256 37.2517 7.64121 36.789 7.41836L33.1756 5.67823L30.6751 2.54264C30.3549 2.14112 29.8693 1.9073 29.3558 1.9073H25.3452L21.7316 0.167063C21.2688 -0.0556875 20.73 -0.0556875 20.2672 0.167063L16.6538 1.90719H12.6433C12.1298 1.90719 11.6441 2.14102 11.324 2.54254L8.82342 5.67812L5.21006 7.41825C4.74737 7.64111 4.41135 8.06245 4.29702 8.56311L3.40454 12.4732L0.903984 15.6086C0.583781 16.0102 0.463863 16.5356 0.578191 17.0364L1.47056 20.9464L0.578191 24.8563C0.463969 25.357 0.583781 25.8825 0.903984 26.284L3.40454 29.4196L4.29702 33.3296C4.41124 33.8303 4.74737 34.2516 5.21006 34.4745L6.50712 35.099L0.563215 47.0533C0.302813 47.577 0.332133 48.1982 0.640735 48.6949C0.948703 49.1907 1.49081 49.4921 2.07427 49.4921H2.07806L6.89472 49.4813L9.79258 53.3277C10.1131 53.7532 10.6134 53.9998 11.1401 53.9998C11.1917 53.9998 11.2436 53.9975 11.2957 53.9926C11.878 53.9388 12.3911 53.5873 12.6514 53.0635L18.671 40.9568L20.2674 41.7255C20.4988 41.8369 20.7492 41.8926 20.9996 41.8926C21.25 41.8926 21.5005 41.8369 21.7317 41.7255L23.3281 40.9568L29.3477 53.0635C29.6082 53.5872 30.1212 53.9387 30.7034 53.9926C30.7554 53.9974 30.8073 53.9998 30.859 53.9998C31.3857 53.9998 31.8861 53.7531 32.2066 53.3277L35.1044 49.4813L39.9211 49.4921C40.5034 49.4974 41.0497 49.1917 41.3583 48.6949C41.6669 48.1982 41.6962 47.5771 41.4358 47.0534ZM10.845 49.1161L9.08256 46.7767C8.76288 46.3524 8.26444 46.1058 7.73098 46.1045L4.80095 46.111L9.37671 36.9083L11.3241 39.3502C11.6443 39.7517 12.1299 39.9855 12.6434 39.9855H15.3847L10.845 49.116V49.1161ZM20.9996 38.3324L17.7713 36.7778C17.5428 36.6678 17.2927 36.6107 17.0391 36.6107H13.456L11.222 33.8094C11.0639 33.6112 10.8633 33.4511 10.6348 33.3411L7.40666 31.7865L6.60932 28.2933C6.55289 28.0461 6.44152 27.8148 6.28352 27.6167L4.04948 24.8152L4.84683 21.322C4.90325 21.0748 4.90325 20.8182 4.84683 20.5709L4.04948 17.0777L6.28352 14.2764C6.44162 14.0782 6.553 13.8469 6.60932 13.5997L7.40666 10.1063L10.6348 8.55172C10.8633 8.44172 11.064 8.28162 11.222 8.08355L13.456 5.28219H17.0391C17.2927 5.28219 17.5428 5.22503 17.7713 5.11513L20.9996 3.56052L24.2279 5.11513C24.4563 5.22513 24.7065 5.28219 24.96 5.28219H28.5431L30.7772 8.08355C30.9353 8.28172 31.1359 8.44172 31.3643 8.55172L34.5925 10.1063L35.3898 13.5997C35.4463 13.8468 35.5576 14.0781 35.7156 14.2764L37.9497 17.0777L37.1523 20.5709C37.0959 20.8182 37.0959 21.0748 37.1523 21.322L37.9497 24.8152L35.7156 27.6167C35.5575 27.8148 35.4462 28.0461 35.3898 28.2933L34.5925 31.7865L31.3643 33.3411C31.1359 33.4511 30.9352 33.6112 30.7772 33.8094L28.5431 36.6107H24.96C24.7065 36.6107 24.4563 36.6679 24.2279 36.7778L20.9996 38.3324ZM34.2682 46.1046C33.7349 46.1079 33.2363 46.3525 32.9166 46.7768L31.1541 49.1162L26.6144 39.9857H29.3558C29.8693 39.9857 30.355 39.7519 30.6751 39.3504L32.6224 36.9085L37.1982 46.1113L34.2682 46.1046Z" fill="#DCBDA1"/>
<path id="Vector_2" d="M34.0781 20.9465C34.0781 13.7352 28.2113 7.86839 21 7.86839C13.7887 7.86839 7.92188 13.7352 7.92188 20.9465C7.92188 28.1578 13.7887 34.0246 21 34.0246C28.2113 34.0246 34.0781 28.1578 34.0781 20.9465ZM21 30.6496C15.6497 30.6496 11.2969 26.2968 11.2969 20.9465C11.2969 15.5962 15.6497 11.2434 21 11.2434C26.3503 11.2434 30.7031 15.5962 30.7031 20.9465C30.7031 26.2968 26.3503 30.6496 21 30.6496Z" fill="#DCBDA1"/>
<path id="Vector_3" d="M20.0304 21.3638L16.9911 18.9323L14.8828 21.5676L19.1016 24.9426C19.4112 25.1904 19.7839 25.3124 20.1553 25.3124C20.5892 25.3124 21.0213 25.1458 21.3489 24.8181L27.2551 18.9118L24.8687 16.5254L20.0304 21.3638Z" fill="#DCBDA1"/>
</g>
</g>
</g>
</svg>
