<svg width="66" height="28" viewBox="0 0 66 28" fill="none" xmlns="http://www.w3.org/2000/svg">
<g id="arrow 2" clip-path="url(#clip0_702_2949)">
<g id="Vector">
<path d="M2.19956 13.6131C1.79956 14.0131 1.89956 14.2131 2.19956 14.5131C3.79956 16.0131 5.29956 17.6131 6.69956 19.3131C7.19956 20.0131 7.59956 19.9131 8.19956 19.3131C9.59956 18.0131 11.2996 17.0131 12.9996 16.2131C14.4996 15.6131 15.9996 14.9131 17.5996 14.1131C17.3652 13.996 17.2339 13.9131 17.125 13.8445C17.0481 13.796 16.9824 13.7545 16.8996 13.7131C16.3868 13.4728 15.874 13.2401 15.3638 13.0086C12.6895 11.7952 10.0829 10.6125 7.89957 8.51312C7.44105 8.0546 7.15072 8.35295 6.87434 8.63697C6.84934 8.66266 6.82445 8.68824 6.79957 8.71312C5.5746 10.2006 4.1965 11.6115 2.79927 13.0128C2.59969 13.213 2.39953 13.4132 2.19956 13.6131Z" fill="#DCBDA1"/>
<path d="M34.8996 15.2131L26.2996 15.2131C26.738 15.4829 27.1537 15.73 27.5505 15.9658C28.3302 16.4292 29.0368 16.8492 29.6996 17.3131C29.9996 17.5131 30.2996 17.6131 30.5996 17.4131C31.9996 16.8131 33.2996 16.1131 34.8996 15.2131Z" fill="#DCBDA1"/>
<path d="M26.5996 12.7131C26.5996 12.8131 26.5996 12.9131 26.6996 12.9131L34.5996 12.9131C33.2996 12.0131 31.9996 11.3131 30.5996 10.7131C30.2996 10.5131 29.9996 10.6131 29.6996 10.8131C28.6996 11.5131 27.6996 12.1131 26.5996 12.7131Z" fill="#DCBDA1"/>
<path d="M37.3996 3.71312C37.3996 3.81312 37.4996 3.91312 37.4996 3.91312C37.5996 3.96312 37.6746 4.01312 37.7496 4.06312C37.8246 4.11312 37.8996 4.16312 37.9996 4.21312C41.2996 6.01312 42.4996 8.71312 41.8996 12.4131C41.8087 13.2305 42.2128 13.2231 42.6623 13.2148C42.7077 13.214 42.7536 13.2131 42.7996 13.2131L50.1996 13.2131C50.7996 13.2131 51.3996 13.2131 51.3996 14.1131C51.3996 14.9131 50.6996 14.9131 50.1996 14.9131C49.3625 14.9131 48.5366 14.9243 47.7145 14.9355C46.0812 14.9577 44.4625 14.9796 42.7996 14.9131C41.9996 14.9131 41.7996 15.1131 41.8996 15.9131C42.2996 18.9131 41.4996 21.5131 38.7996 23.2131C38.7219 23.2597 38.6418 23.3063 38.5604 23.3537C38.118 23.6112 37.6374 23.8908 37.2996 24.3131C37.8996 24.7131 38.4996 25.1131 38.9996 25.6131C39.4996 26.0131 39.7996 26.0131 40.1996 25.4131C41.3996 23.7131 42.8996 22.3131 44.6996 21.1131C48.8996 18.3131 53.3996 16.2131 58.2996 15.0131C59.102 14.8412 59.9044 14.6364 60.6879 14.4364C61.2715 14.2875 61.8446 14.1412 62.3996 14.0131C61.1929 13.6109 59.9663 13.3086 58.7465 13.0079C57.2368 12.6358 55.7376 12.2662 54.2996 11.7131C49.4996 9.91312 44.8996 7.71312 41.2996 3.91312C41.089 3.70259 40.9154 3.41818 40.7442 3.13767C40.4275 2.61874 40.1189 2.11312 39.5996 2.11312C39.0583 2.19044 38.4573 2.74602 37.889 3.2714C37.7222 3.42552 37.5583 3.57704 37.3996 3.71312Z" fill="#DCBDA1"/>
</g>
<path id="Vector_2" fill-rule="evenodd" clip-rule="evenodd" d="M-6.12536e-07 14.0132C-5.68824e-07 13.0132 1.49956 11.9131 2.19956 11.2131C3.49956 9.91312 4.69957 8.51312 5.89957 7.11312C6.99956 5.81312 7.79956 5.71312 9.09956 6.91312C11.9996 9.71312 15.6996 11.0131 19.0996 12.7131C19.4996 13.0131 19.9996 13.0131 20.5996 13.0131L21.4996 13.0131C22.0996 13.0131 22.6996 12.9131 23.2996 12.5131C25.1996 11.3131 27.0996 10.3131 28.9996 9.21312C29.8996 8.71312 30.7996 8.71312 31.6996 9.21312L37.6996 12.8131C39.0996 13.6131 40.3996 13.1131 40.4996 11.6131C40.6996 9.51313 40.1996 7.71312 38.3996 6.41312C37.3996 5.71312 36.3996 5.11312 35.3996 4.61312C34.9996 4.41312 34.5996 4.11312 34.5996 3.51312C34.6996 2.91312 35.0996 2.71312 35.5996 2.61312C36.9996 2.31312 38.1996 1.41312 39.1996 0.513124C39.9996 -0.186876 40.7996 -0.186876 41.3996 0.613124C44.8996 5.81312 50.2996 8.11312 55.7996 10.4131C58.4996 11.5131 61.4996 12.0131 64.2996 12.9131C64.4996 13.0131 64.8996 13.1131 65.1996 13.4131C65.7996 13.9131 65.4996 14.8131 64.5996 15.0131C62.7996 15.5131 60.9996 16.0131 59.2996 16.5131C54.3996 17.8131 49.8996 20.0131 45.6996 22.9131C43.9996 24.1131 42.5996 25.5131 41.3996 27.2131C40.6996 28.3131 39.8996 28.4131 38.8996 27.5131C37.8996 26.6131 36.7996 25.8131 35.3996 25.5131C34.8996 25.4131 34.4996 25.1131 34.4996 24.6131C34.4996 24.1131 34.7996 23.8131 35.1996 23.6131C36.2996 23.1131 37.2996 22.5131 38.1996 21.8131C40.0996 20.4131 40.8996 17.9131 40.1996 15.7131C39.9996 15.0131 38.3996 14.7131 37.5996 15.3131C35.6996 16.6131 33.5996 17.6131 31.6996 18.8131C30.5996 19.5131 29.6996 19.4131 28.5996 18.8131C26.6996 17.6131 24.6996 16.6131 22.7996 15.4131C22.3996 15.2131 22.0996 15.2131 21.6996 15.2131L20.1996 15.2131C19.3996 15.2131 18.6996 15.5131 18.0996 15.8131C14.7996 17.5131 11.2996 18.8131 8.49956 21.5131C7.59956 22.4131 6.69957 22.3131 5.79957 21.2131C4.49957 19.8131 3.29957 18.3131 1.89957 16.9131C1.09956 16.1131 -6.34392e-07 14.5132 -6.12536e-07 14.0132ZM26.6996 12.9131C26.5996 12.9131 26.5996 12.8131 26.5996 12.7131C27.6996 12.1131 28.6996 11.5131 29.6996 10.8131C29.9996 10.6131 30.2996 10.5131 30.5996 10.7131C31.9996 11.3131 33.2996 12.0131 34.5996 12.9131L26.6996 12.9131ZM26.2996 15.2131L34.8996 15.2131C33.2996 16.1131 31.9996 16.8131 30.5996 17.4131C30.2996 17.6131 29.9996 17.5131 29.6996 17.3131C29.0368 16.8492 28.3302 16.4292 27.5505 15.9658C27.1537 15.73 26.738 15.4829 26.2996 15.2131ZM2.19956 14.5131C1.89956 14.2131 1.79956 14.0131 2.19956 13.6131C2.39953 13.4132 2.59969 13.213 2.79927 13.0128C4.1965 11.6115 5.5746 10.2006 6.79957 8.71312C6.82445 8.68824 6.84934 8.66266 6.87434 8.63697C7.15072 8.35295 7.44105 8.0546 7.89957 8.51312C10.0829 10.6125 12.6895 11.7952 15.3638 13.0086C15.874 13.2401 16.3868 13.4728 16.8996 13.7131C16.9824 13.7545 17.0481 13.796 17.125 13.8445C17.2339 13.9131 17.3652 13.996 17.5996 14.1131C15.9996 14.9131 14.4996 15.6131 12.9996 16.2131C11.2996 17.0131 9.59956 18.0131 8.19956 19.3131C7.59956 19.9131 7.19956 20.0131 6.69956 19.3131C5.29956 17.6131 3.79956 16.0131 2.19956 14.5131ZM37.4996 3.91312C37.4996 3.91312 37.3996 3.81312 37.3996 3.71312C37.5583 3.57704 37.7222 3.42552 37.889 3.2714C38.4573 2.74602 39.0583 2.19044 39.5996 2.11312C40.1189 2.11312 40.4275 2.61874 40.7442 3.13767C40.9154 3.41818 41.089 3.70259 41.2996 3.91312C44.8996 7.71312 49.4996 9.91312 54.2996 11.7131C55.7376 12.2662 57.2368 12.6358 58.7465 13.0079C59.9663 13.3086 61.1929 13.6109 62.3996 14.0131C61.8446 14.1412 61.2715 14.2875 60.6879 14.4364C59.9044 14.6364 59.102 14.8412 58.2996 15.0131C53.3996 16.2131 48.8996 18.3131 44.6996 21.1131C42.8996 22.3131 41.3996 23.7131 40.1996 25.4131C39.7996 26.0131 39.4996 26.0131 38.9996 25.6131C38.4996 25.1131 37.8996 24.7131 37.2996 24.3131C37.6374 23.8908 38.118 23.6112 38.5604 23.3537C38.6418 23.3063 38.7219 23.2597 38.7996 23.2131C41.4996 21.5131 42.2996 18.9131 41.8996 15.9131C41.7996 15.1131 41.9996 14.9131 42.7996 14.9131C44.4625 14.9796 46.0812 14.9577 47.7145 14.9355C48.5366 14.9243 49.3625 14.9131 50.1996 14.9131C50.6996 14.9131 51.3996 14.9131 51.3996 14.1131C51.3996 13.2131 50.7996 13.2131 50.1996 13.2131L42.7996 13.2131C42.7536 13.2131 42.7077 13.214 42.6623 13.2148C42.2128 13.2231 41.8087 13.2305 41.8996 12.4131C42.4996 8.71312 41.2996 6.01312 37.9996 4.21312C37.8996 4.16312 37.8246 4.11312 37.7496 4.06312C37.6746 4.01312 37.5996 3.96312 37.4996 3.91312Z" fill="#916A4E"/>
</g>
<defs>
<clipPath id="clip0_702_2949">
<rect width="28" height="66" fill="white" transform="translate(66) rotate(90)"/>
</clipPath>
</defs>
</svg>
