<svg width="66" height="28" viewBox="0 0 66 28" fill="none" xmlns="http://www.w3.org/2000/svg">
<g id="arrow 3" clip-path="url(#clip0_702_2948)">
<g id="Vector">
<path d="M63.8004 13.6131C64.2004 14.0131 64.1004 14.2131 63.8004 14.5131C62.2004 16.0131 60.7004 17.6131 59.3004 19.3131C58.8004 20.0131 58.4004 19.9131 57.8004 19.3131C56.4004 18.0131 54.7004 17.0131 53.0004 16.2131C51.5004 15.6131 50.0004 14.9131 48.4004 14.1131C48.6348 13.996 48.7661 13.9131 48.875 13.8445C48.9519 13.796 49.0176 13.7545 49.1004 13.7131C49.6132 13.4728 50.126 13.2401 50.6362 13.0086C53.3105 11.7952 55.9171 10.6125 58.1004 8.51312C58.559 8.0546 58.8493 8.35295 59.1257 8.63697C59.1507 8.66266 59.1755 8.68824 59.2004 8.71312C60.4254 10.2006 61.8035 11.6115 63.2007 13.0128C63.4003 13.213 63.6005 13.4132 63.8004 13.6131Z" fill="#DCBDA1"/>
<path d="M31.1004 15.2131L39.7004 15.2131C39.262 15.4829 38.8463 15.73 38.4495 15.9658C37.6698 16.4292 36.9632 16.8492 36.3004 17.3131C36.0004 17.5131 35.7004 17.6131 35.4004 17.4131C34.0004 16.8131 32.7004 16.1131 31.1004 15.2131Z" fill="#DCBDA1"/>
<path d="M39.4004 12.7131C39.4004 12.8131 39.4004 12.9131 39.3004 12.9131L31.4004 12.9131C32.7004 12.0131 34.0004 11.3131 35.4004 10.7131C35.7004 10.5131 36.0004 10.6131 36.3004 10.8131C37.3004 11.5131 38.3004 12.1131 39.4004 12.7131Z" fill="#DCBDA1"/>
<path d="M28.6004 3.71312C28.6004 3.81312 28.5004 3.91312 28.5004 3.91312C28.4004 3.96312 28.3254 4.01312 28.2504 4.06312C28.1754 4.11312 28.1004 4.16312 28.0004 4.21312C24.7004 6.01312 23.5004 8.71312 24.1004 12.4131C24.1913 13.2305 23.7872 13.2231 23.3377 13.2148C23.2923 13.214 23.2464 13.2131 23.2004 13.2131L15.8004 13.2131C15.2004 13.2131 14.6004 13.2131 14.6004 14.1131C14.6004 14.9131 15.3004 14.9131 15.8004 14.9131C16.6375 14.9131 17.4634 14.9243 18.2855 14.9355C19.9188 14.9577 21.5375 14.9796 23.2004 14.9131C24.0004 14.9131 24.2004 15.1131 24.1004 15.9131C23.7004 18.9131 24.5004 21.5131 27.2004 23.2131C27.2781 23.2597 27.3582 23.3063 27.4396 23.3537C27.882 23.6112 28.3626 23.8908 28.7004 24.3131C28.1004 24.7131 27.5004 25.1131 27.0004 25.6131C26.5004 26.0131 26.2004 26.0131 25.8004 25.4131C24.6004 23.7131 23.1004 22.3131 21.3004 21.1131C17.1004 18.3131 12.6004 16.2131 7.70044 15.0131C6.89804 14.8412 6.09564 14.6364 5.31207 14.4364C4.72849 14.2875 4.15535 14.1412 3.60044 14.0131C4.80709 13.6109 6.03372 13.3086 7.25355 13.0079C8.76319 12.6358 10.2624 12.2662 11.7004 11.7131C16.5004 9.91312 21.1004 7.71312 24.7004 3.91312C24.911 3.70259 25.0846 3.41818 25.2558 3.13767C25.5725 2.61874 25.8811 2.11312 26.4004 2.11312C26.9417 2.19044 27.5427 2.74602 28.111 3.2714C28.2778 3.42552 28.4417 3.57704 28.6004 3.71312Z" fill="#DCBDA1"/>
</g>
<path id="Vector_2" fill-rule="evenodd" clip-rule="evenodd" d="M66 14.0132C66 13.0132 64.5004 11.9131 63.8004 11.2131C62.5004 9.91312 61.3004 8.51312 60.1004 7.11312C59.0004 5.81312 58.2004 5.71312 56.9004 6.91312C54.0004 9.71312 50.3004 11.0131 46.9004 12.7131C46.5004 13.0131 46.0004 13.0131 45.4004 13.0131L44.5004 13.0131C43.9004 13.0131 43.3004 12.9131 42.7004 12.5131C40.8004 11.3131 38.9004 10.3131 37.0004 9.21312C36.1004 8.71312 35.2004 8.71312 34.3004 9.21312L28.3004 12.8131C26.9004 13.6131 25.6004 13.1131 25.5004 11.6131C25.3004 9.51313 25.8004 7.71312 27.6004 6.41312C28.6004 5.71312 29.6004 5.11312 30.6004 4.61312C31.0004 4.41312 31.4004 4.11312 31.4004 3.51312C31.3004 2.91312 30.9004 2.71312 30.4004 2.61312C29.0004 2.31312 27.8004 1.41312 26.8004 0.513124C26.0004 -0.186876 25.2004 -0.186876 24.6004 0.613124C21.1004 5.81312 15.7004 8.11312 10.2004 10.4131C7.50044 11.5131 4.50044 12.0131 1.70044 12.9131C1.50044 13.0131 1.10044 13.1131 0.800437 13.4131C0.200437 13.9131 0.500437 14.8131 1.40044 15.0131C3.20044 15.5131 5.00044 16.0131 6.70044 16.5131C11.6004 17.8131 16.1004 20.0131 20.3004 22.9131C22.0004 24.1131 23.4004 25.5131 24.6004 27.2131C25.3004 28.3131 26.1004 28.4131 27.1004 27.5131C28.1004 26.6131 29.2004 25.8131 30.6004 25.5131C31.1004 25.4131 31.5004 25.1131 31.5004 24.6131C31.5004 24.1131 31.2004 23.8131 30.8004 23.6131C29.7004 23.1131 28.7004 22.5131 27.8004 21.8131C25.9004 20.4131 25.1004 17.9131 25.8004 15.7131C26.0004 15.0131 27.6004 14.7131 28.4004 15.3131C30.3004 16.6131 32.4004 17.6131 34.3004 18.8131C35.4004 19.5131 36.3004 19.4131 37.4004 18.8131C39.3004 17.6131 41.3004 16.6131 43.2004 15.4131C43.6004 15.2131 43.9004 15.2131 44.3004 15.2131L45.8004 15.2131C46.6004 15.2131 47.3004 15.5131 47.9004 15.8131C51.2004 17.5131 54.7004 18.8131 57.5004 21.5131C58.4004 22.4131 59.3004 22.3131 60.2004 21.2131C61.5004 19.8131 62.7004 18.3131 64.1004 16.9131C64.9004 16.1131 66 14.5132 66 14.0132ZM39.3004 12.9131C39.4004 12.9131 39.4004 12.8131 39.4004 12.7131C38.3004 12.1131 37.3004 11.5131 36.3004 10.8131C36.0004 10.6131 35.7004 10.5131 35.4004 10.7131C34.0004 11.3131 32.7004 12.0131 31.4004 12.9131L39.3004 12.9131ZM39.7004 15.2131L31.1004 15.2131C32.7004 16.1131 34.0004 16.8131 35.4004 17.4131C35.7004 17.6131 36.0004 17.5131 36.3004 17.3131C36.9632 16.8492 37.6698 16.4292 38.4495 15.9658C38.8463 15.73 39.262 15.4829 39.7004 15.2131ZM63.8004 14.5131C64.1004 14.2131 64.2004 14.0131 63.8004 13.6131C63.6005 13.4132 63.4003 13.213 63.2007 13.0128C61.8035 11.6115 60.4254 10.2006 59.2004 8.71312C59.1755 8.68824 59.1507 8.66266 59.1257 8.63697C58.8493 8.35295 58.559 8.0546 58.1004 8.51312C55.9171 10.6125 53.3105 11.7952 50.6362 13.0086C50.126 13.2401 49.6132 13.4728 49.1004 13.7131C49.0176 13.7545 48.9519 13.796 48.875 13.8445C48.7661 13.9131 48.6348 13.996 48.4004 14.1131C50.0004 14.9131 51.5004 15.6131 53.0004 16.2131C54.7004 17.0131 56.4004 18.0131 57.8004 19.3131C58.4004 19.9131 58.8004 20.0131 59.3004 19.3131C60.7004 17.6131 62.2004 16.0131 63.8004 14.5131ZM28.5004 3.91312C28.5004 3.91312 28.6004 3.81312 28.6004 3.71312C28.4417 3.57704 28.2778 3.42552 28.111 3.2714C27.5427 2.74602 26.9417 2.19044 26.4004 2.11312C25.8811 2.11312 25.5725 2.61874 25.2558 3.13767C25.0846 3.41818 24.911 3.70259 24.7004 3.91312C21.1004 7.71312 16.5004 9.91312 11.7004 11.7131C10.2624 12.2662 8.76319 12.6358 7.25355 13.0079C6.03372 13.3086 4.80709 13.6109 3.60044 14.0131C4.15535 14.1412 4.72849 14.2875 5.31207 14.4364C6.09564 14.6364 6.89804 14.8412 7.70044 15.0131C12.6004 16.2131 17.1004 18.3131 21.3004 21.1131C23.1004 22.3131 24.6004 23.7131 25.8004 25.4131C26.2004 26.0131 26.5004 26.0131 27.0004 25.6131C27.5004 25.1131 28.1004 24.7131 28.7004 24.3131C28.3626 23.8908 27.882 23.6112 27.4396 23.3537C27.3582 23.3063 27.2781 23.2597 27.2004 23.2131C24.5004 21.5131 23.7004 18.9131 24.1004 15.9131C24.2004 15.1131 24.0004 14.9131 23.2004 14.9131C21.5375 14.9796 19.9188 14.9577 18.2855 14.9355C17.4634 14.9243 16.6375 14.9131 15.8004 14.9131C15.3004 14.9131 14.6004 14.9131 14.6004 14.1131C14.6004 13.2131 15.2004 13.2131 15.8004 13.2131L23.2004 13.2131C23.2464 13.2131 23.2923 13.214 23.3377 13.2148C23.7872 13.2231 24.1913 13.2305 24.1004 12.4131C23.5004 8.71312 24.7004 6.01312 28.0004 4.21312C28.1004 4.16312 28.1754 4.11312 28.2504 4.06312C28.3254 4.01312 28.4004 3.96312 28.5004 3.91312Z" fill="#916A4E"/>
</g>
<defs>
<clipPath id="clip0_702_2948">
<rect width="28" height="66" fill="white" transform="matrix(4.37114e-08 1 1 -4.37114e-08 0 0)"/>
</clipPath>
</defs>
</svg>
