<svg width="24" height="22" viewBox="0 0 24 22" fill="none" xmlns="http://www.w3.org/2000/svg">
<g id="XMLID_496_">
<path id="XMLID_497_" d="M0.423911 10.5718L5.95399 12.6358L8.09447 19.5196C8.23143 19.9604 8.77055 20.1234 9.12839 19.8308L12.2109 17.3179C12.5341 17.0546 12.9943 17.0415 13.332 17.2866L18.8918 21.3232C19.2746 21.6014 19.8169 21.3916 19.913 20.9291L23.9858 1.3378C24.0906 0.832523 23.5941 0.411003 23.113 0.597083L0.417431 9.35236C-0.142649 9.56836 -0.137769 10.3613 0.423911 10.5718ZM7.74951 11.5371L18.5574 4.88052C18.7516 4.76124 18.9514 5.02388 18.7846 5.1786L9.86503 13.4698C9.55151 13.7616 9.34927 14.1522 9.29199 14.5761L8.98815 16.8278C8.94791 17.1284 8.52559 17.1583 8.44263 16.8673L7.27407 12.7613C7.14023 12.293 7.33527 11.7928 7.74951 11.5371Z" fill="#1E2839"/>
</g>
</svg>
