<svg width="34" height="34" viewBox="0 0 34 34" fill="none" xmlns="http://www.w3.org/2000/svg">
<rect width="34" height="34" rx="17" fill="#27A5E4"/>
<g clip-path="url(#clip0_1152_1865)">
<path d="M10.2473 16.75L13.4732 17.954L14.7218 21.9695C14.8017 22.2267 15.1162 22.3218 15.3249 22.1511L17.1231 20.6852C17.3115 20.5316 17.58 20.524 17.777 20.667L21.0202 23.0216C21.2435 23.1839 21.5599 23.0616 21.6159 22.7918L23.9917 11.3635C24.0529 11.0688 23.7633 10.8229 23.4826 10.9314L10.2435 16.0387C9.91679 16.1647 9.91963 16.6272 10.2473 16.75ZM14.5205 17.3131L20.8251 13.4301C20.9384 13.3605 21.055 13.5137 20.9577 13.604L15.7546 18.4405C15.5717 18.6108 15.4537 18.8386 15.4203 19.0859L15.2431 20.3993C15.2196 20.5747 14.9733 20.5921 14.9249 20.4224L14.2432 18.0272C14.1651 17.754 14.2789 17.4622 14.5205 17.3131Z" fill="white"/>
</g>
<defs>
<clipPath id="clip0_1152_1865">
<rect width="14" height="14" fill="white" transform="translate(10 10)"/>
</clipPath>
</defs>
</svg>
