<svg width="40" height="41" viewBox="0 0 40 41" fill="none" xmlns="http://www.w3.org/2000/svg">
<g id="Mask group">
<mask id="mask0_1152_13" style="mask-type:luminance" maskUnits="userSpaceOnUse" x="0" y="0" width="40" height="41">
<g id="Group">
<path id="bg" d="M40 0.5H0V40.5H40V0.5Z" fill="white"/>
</g>
</mask>
<g mask="url(#mask0_1152_13)">
<g id="Group_2">
<g id="g903">
<g id="g905">
<path id="path907 (Stroke)" fill-rule="evenodd" clip-rule="evenodd" d="M5.74219 35.5005C5.74219 36.1264 6.2496 36.6338 6.87552 36.6338H33.1255C33.7514 36.6338 34.2589 36.1264 34.2589 35.5005C34.2589 34.8745 33.7514 34.3671 33.1255 34.3671H6.87552C6.2496 34.3671 5.74219 34.8745 5.74219 35.5005Z" fill="#DCBDA1"/>
</g>
<g id="g909">
<g id="Clip path group">
<mask id="mask1_1152_13" style="mask-type:luminance" maskUnits="userSpaceOnUse" x="0" y="0" width="40" height="41">
<g id="clipPath915">
<path id="path913" d="M0 0.500004H40V40.5H0V0.500004Z" fill="white"/>
</g>
</mask>
<g mask="url(#mask1_1152_13)">
<g id="g911">
<g id="g917">
<path id="path919 (Stroke)" fill-rule="evenodd" clip-rule="evenodd" d="M0.742188 35.5005C0.742188 36.1264 1.2496 36.6338 1.87552 36.6338H6.87552C7.50144 36.6338 8.00885 36.1264 8.00885 35.5005V25.5005C8.00885 24.8745 7.50144 24.3671 6.87552 24.3671C6.2496 24.3671 5.74219 24.8745 5.74219 25.5005V34.3671H3.00885V20.5005C3.00885 19.8745 2.50144 19.3671 1.87552 19.3671C1.2496 19.3671 0.742188 19.8745 0.742188 20.5005V35.5005Z" fill="#DCBDA1"/>
</g>
<g id="g921">
<path id="path923 (Stroke)" fill-rule="evenodd" clip-rule="evenodd" d="M31.9922 35.5005C31.9922 36.1264 32.4996 36.6338 33.1255 36.6338H38.1255C38.7514 36.6338 39.2589 36.1264 39.2589 35.5005V20.5005C39.2589 19.8745 38.7514 19.3671 38.1255 19.3671C37.4996 19.3671 36.9922 19.8745 36.9922 20.5005V34.3671H34.2589V25.5005C34.2589 24.8745 33.7514 24.3671 33.1255 24.3671C32.4996 24.3671 31.9922 24.8745 31.9922 25.5005V35.5005Z" fill="#DCBDA1"/>
</g>
<g id="g925">
<path id="path927 (Stroke)" fill-rule="evenodd" clip-rule="evenodd" d="M5.00052 24.9921C3.90058 24.9921 3.00885 24.1004 3.00885 23.0005V21.0088H36.9922V23.0005C36.9922 24.1004 36.1005 24.9921 35.0005 24.9921C34.3498 24.9921 33.7721 24.6812 33.4067 24.1948C33.1926 23.9098 32.8569 23.7421 32.5005 23.7421C32.1441 23.7421 31.8084 23.9098 31.5944 24.1948C31.229 24.6812 30.6512 24.9921 30.0005 24.9921C29.3498 24.9921 28.7721 24.6812 28.4067 24.1948C28.1926 23.9098 27.8569 23.7421 27.5005 23.7421C27.1441 23.7421 26.8084 23.9098 26.5944 24.1948C26.229 24.6812 25.6512 24.9921 25.0005 24.9921C24.3498 24.9921 23.7721 24.6812 23.4067 24.1948C23.1926 23.9098 22.8569 23.7421 22.5005 23.7421C22.1441 23.7421 21.8085 23.9098 21.5944 24.1948C21.229 24.6812 20.6512 24.9921 20.0005 24.9921C19.3498 24.9921 18.7721 24.6812 18.4067 24.1948C18.1926 23.9098 17.8569 23.7421 17.5005 23.7421C17.1441 23.7421 16.8085 23.9098 16.5944 24.1948C16.229 24.6812 15.6512 24.9921 15.0005 24.9921C14.3498 24.9921 13.7721 24.6812 13.4067 24.1948C13.1926 23.9098 12.8569 23.7421 12.5005 23.7421C12.1441 23.7421 11.8084 23.9098 11.5944 24.1948C11.229 24.6812 10.6512 24.9921 10.0005 24.9921C9.34982 24.9921 8.77206 24.6812 8.40666 24.1948C8.19259 23.9098 7.85694 23.7421 7.50052 23.7421C7.1441 23.7421 6.80845 23.9098 6.59438 24.1948C6.22898 24.6812 5.65122 24.9921 5.00052 24.9921ZM0.742188 23.0005C0.742188 25.3522 2.64874 27.2588 5.00052 27.2588C5.93497 27.2588 6.79899 26.9572 7.50052 26.4477C8.20205 26.9572 9.06607 27.2588 10.0005 27.2588C10.935 27.2588 11.799 26.9572 12.5005 26.4477C13.2021 26.9572 14.0661 27.2588 15.0005 27.2588C15.935 27.2588 16.799 26.9572 17.5005 26.4477C18.2021 26.9572 19.0661 27.2588 20.0005 27.2588C20.935 27.2588 21.799 26.9572 22.5005 26.4477C23.202 26.9572 24.0661 27.2588 25.0005 27.2588C25.935 27.2588 26.799 26.9572 27.5005 26.4477C28.202 26.9572 29.0661 27.2588 30.0005 27.2588C30.935 27.2588 31.799 26.9572 32.5005 26.4477C33.2021 26.9572 34.0661 27.2588 35.0005 27.2588C37.3523 27.2588 39.2589 25.3522 39.2589 23.0005V19.8755C39.2589 19.2495 38.7514 18.7421 38.1255 18.7421H1.87552C1.2496 18.7421 0.742188 19.2495 0.742188 19.8755V23.0005Z" fill="#DCBDA1"/>
</g>
<path id="path929 (Stroke)" fill-rule="evenodd" clip-rule="evenodd" d="M0.742188 39.3286C0.742188 39.9545 1.2496 40.4619 1.87552 40.4619H38.1255C38.7514 40.4619 39.2589 39.9545 39.2589 39.3286V35.5005C39.2589 34.8745 38.7514 34.3671 38.1255 34.3671H1.87552C1.2496 34.3671 0.742188 34.8745 0.742188 35.5005V39.3286ZM3.00885 38.1952V36.6338H36.9922V38.1952H3.00885Z" fill="#DCBDA1"/>
<path id="path931 (Stroke)" fill-rule="evenodd" clip-rule="evenodd" d="M14.4922 19.8755C14.4922 20.5014 14.9996 21.0088 15.6255 21.0088H24.3755C25.0014 21.0088 25.5089 20.5014 25.5089 19.8755V15.5005C25.5089 14.8745 25.0014 14.3671 24.3755 14.3671H15.6255C14.9996 14.3671 14.4922 14.8745 14.4922 15.5005V19.8755ZM16.7589 18.7421V16.6338H23.2422V18.7421H16.7589Z" fill="#DCBDA1"/>
<g id="g933">
<path id="path935 (Stroke)" fill-rule="evenodd" clip-rule="evenodd" d="M16.3672 15.5005C16.3672 16.1264 16.8746 16.6338 17.5005 16.6338H22.5005C23.1264 16.6338 23.6339 16.1264 23.6339 15.5005V11.0088H25.6255C26.2514 11.0088 26.7589 10.5014 26.7589 9.87546V4.87545C26.7589 4.24953 26.2514 3.74212 25.6255 3.74212H23.6339V1.67233C23.6339 1.04641 23.1264 0.538996 22.5005 0.538996H17.5005C16.8746 0.538996 16.3672 1.04641 16.3672 1.67233V3.74212H14.3755C13.7496 3.74212 13.2422 4.24953 13.2422 4.87545V9.87546C13.2422 10.5014 13.7496 11.0088 14.3755 11.0088H16.3672V15.5005ZM18.6339 14.3671V9.87546C18.6339 9.24953 18.1264 8.74212 17.5005 8.74212H15.5089V6.00879H17.5005C18.1264 6.00879 18.6339 5.50138 18.6339 4.87545V2.80566H21.3672V4.87545C21.3672 5.50138 21.8746 6.00879 22.5005 6.00879H24.4922V8.74212H22.5005C21.8746 8.74212 21.3672 9.24953 21.3672 9.87546V14.3671H18.6339Z" fill="#DCBDA1"/>
</g>
<g id="g937">
<path id="path939 (Stroke)" fill-rule="evenodd" clip-rule="evenodd" d="M4.5358 20.1868C4.67482 20.6733 5.11952 21.0088 5.62553 21.0088H9.37553C9.88154 21.0088 10.3262 20.6733 10.4653 20.1868L11.7153 15.8118C11.813 15.4699 11.7445 15.1019 11.5303 14.818C11.3162 14.5341 10.9812 14.3671 10.6255 14.3671H4.37553C4.0199 14.3671 3.68489 14.5341 3.47074 14.818C3.25658 15.1019 3.1881 15.4699 3.2858 15.8118L4.5358 20.1868ZM6.48041 18.7421L5.87802 16.6338H9.12304L8.52066 18.7421H6.48041Z" fill="#DCBDA1"/>
</g>
<g id="g941">
<path id="path943 (Stroke)" fill-rule="evenodd" clip-rule="evenodd" d="M29.5358 20.1868C29.6748 20.6733 30.1195 21.0088 30.6255 21.0088H34.3755C34.8815 21.0088 35.3262 20.6733 35.4653 20.1868L36.7153 15.8118C36.813 15.4699 36.7445 15.1019 36.5303 14.818C36.3162 14.5341 35.9812 14.3671 35.6255 14.3671H29.3755C29.0199 14.3671 28.6849 14.5341 28.4707 14.818C28.2566 15.1019 28.1881 15.4699 28.2858 15.8118L29.5358 20.1868ZM31.4804 18.7421L30.878 16.6338H34.123L33.5207 18.7421H31.4804Z" fill="#DCBDA1"/>
</g>
<g id="g945">
<path id="path947 (Stroke)" fill-rule="evenodd" clip-rule="evenodd" d="M7.50077 16.6338C7.93004 16.6338 8.32248 16.3913 8.51445 16.0073L10.3895 12.2573C10.6694 11.6975 10.4425 11.0167 9.88261 10.7368C9.32277 10.4569 8.64201 10.6838 8.36208 11.2436L7.50077 12.9662L6.63945 11.2436C6.35953 10.6838 5.67877 10.4569 5.11893 10.7368C4.55908 11.0167 4.33216 11.6975 4.61208 12.2573L6.48708 16.0073C6.67906 16.3913 7.07149 16.6338 7.50077 16.6338Z" fill="#DCBDA1"/>
</g>
<g id="g949">
<path id="path951 (Stroke)" fill-rule="evenodd" clip-rule="evenodd" d="M32.5008 16.6338C32.93 16.6338 33.3225 16.3913 33.5145 16.0073L35.3895 12.2573C35.6694 11.6975 35.4425 11.0167 34.8826 10.7368C34.3228 10.4569 33.642 10.6838 33.3621 11.2436L32.5008 12.9662L31.6395 11.2436C31.3595 10.6838 30.6788 10.4569 30.1189 10.7368C29.5591 11.0167 29.3322 11.6975 29.6121 12.2573L31.4871 16.0073C31.6791 16.3913 32.0715 16.6338 32.5008 16.6338Z" fill="#DCBDA1"/>
</g>
<g id="g953">
<path id="path955 (Stroke)" fill-rule="evenodd" clip-rule="evenodd" d="M16.9922 30.5005C16.9922 31.1264 17.4996 31.6338 18.1255 31.6338H21.8755C22.5014 31.6338 23.0089 31.1264 23.0089 30.5005C23.0089 29.8745 22.5014 29.3671 21.8755 29.3671H18.1255C17.4996 29.3671 16.9922 29.8745 16.9922 30.5005Z" fill="#DCBDA1"/>
</g>
</g>
</g>
</g>
</g>
</g>
</g>
</g>
</g>
</svg>
