<svg width="34" height="34" viewBox="0 0 34 34" fill="none" xmlns="http://www.w3.org/2000/svg">
<rect width="34" height="34" rx="17" fill="#DCBDA1"/>
<g clip-path="url(#clip0_702_3123)">
<path d="M17.0017 10H16.9983C13.1386 10 10 13.1395 10 17C10 18.5312 10.4935 19.9505 11.3326 21.1029L10.4603 23.7034L13.1509 22.8433C14.2578 23.5765 15.5781 24 17.0017 24C20.8614 24 24 20.8596 24 17C24 13.1404 20.8614 10 17.0017 10ZM21.0749 19.8849C20.906 20.3617 20.2358 20.7572 19.7011 20.8727C19.3354 20.9506 18.8576 21.0128 17.2494 20.346C15.1922 19.4938 13.8675 17.4034 13.7643 17.2677C13.6654 17.1321 12.933 16.1609 12.933 15.1564C12.933 14.1519 13.4431 13.6628 13.6488 13.4528C13.8176 13.2804 14.0967 13.2016 14.3645 13.2016C14.4511 13.2016 14.529 13.206 14.599 13.2095C14.8046 13.2183 14.9079 13.2305 15.0435 13.5551C15.2124 13.962 15.6236 14.9665 15.6726 15.0698C15.7225 15.173 15.7724 15.313 15.7024 15.4486C15.6368 15.5886 15.579 15.6507 15.4757 15.7697C15.3725 15.8888 15.2745 15.9798 15.1712 16.1075C15.0767 16.2186 14.97 16.3376 15.089 16.5433C15.208 16.7445 15.6192 17.4156 16.2248 17.9546C17.0061 18.6502 17.6396 18.8725 17.8663 18.967C18.0351 19.037 18.2364 19.0204 18.3597 18.8891C18.5164 18.7203 18.7098 18.4403 18.9066 18.1646C19.0466 17.9669 19.2234 17.9424 19.4089 18.0124C19.5979 18.078 20.598 18.5724 20.8036 18.6747C21.0092 18.778 21.1449 18.827 21.1947 18.9136C21.2437 19.0002 21.2437 19.4071 21.0749 19.8849Z" fill="white"/>
</g>
<defs>
<clipPath id="clip0_702_3123">
<rect width="14" height="14" fill="white" transform="translate(10 10)"/>
</clipPath>
</defs>
</svg>
